<svg width="62" height="71" viewBox="0 0 62 71" fill="none" xmlns="http://www.w3.org/2000/svg">
<path fill-rule="evenodd" clip-rule="evenodd" d="M26.3212 1.23424C25.8298 1.91186 25.2023 2.77403 24.9266 3.15013C24.3689 3.91132 24.5993 3.80289 22.7597 4.16984C20.3348 4.65366 19.7325 4.78633 19.6453 4.8558C19.5364 4.9426 19.5641 5.12132 20.0954 7.76187C20.3116 8.83668 20.3767 9.33523 20.3156 9.44913C20.167 9.72605 18.6001 11.8859 18.4717 11.9909C18.3293 12.1074 18.3171 12.5496 18.4424 13.0582C18.5182 13.3658 19.2958 17.1325 19.6562 18.9377C19.7202 19.2586 19.8515 19.915 19.9477 20.3963C20.044 20.8777 20.0883 21.2715 20.0462 21.2715C20.0041 21.2715 19.9697 21.236 19.9697 21.1926C19.9697 21.1492 19.6502 20.7107 19.2597 20.218C18.8693 19.7253 18.5033 19.2357 18.4466 19.1299C18.3899 19.0242 18.2675 18.9377 18.1748 18.9377C18.0821 18.9377 17.5712 19.271 17.0396 19.6782C15.7802 20.6431 14.5478 21.5823 13.3004 22.5282C12.747 22.9478 11.9009 23.5941 11.4201 23.9644C10.9394 24.3347 10.4348 24.7184 10.2988 24.8171C10.1627 24.9159 9.63109 25.3198 9.11736 25.7148C8.60364 26.1097 8.07273 26.5136 7.93755 26.6124C7.80236 26.7111 7.24832 27.1263 6.70634 27.5349L5.72101 28.2778L5.47234 28.0243C5.10937 27.654 4.43409 27.3168 3.79212 27.1853C2.75729 26.9734 1.72292 27.3051 0.89365 28.1147C0.272556 28.7211 0.0701443 29.1823 0.0111939 30.1253C-0.0669266 31.3738 0.259866 32.1897 1.11685 32.886C2.10137 33.6859 3.31314 33.8825 4.45353 33.4274C4.7724 33.3002 5.07157 33.2094 5.11846 33.2255C5.1973 33.2526 5.52796 33.6738 7.71344 36.5311C9.48196 38.8434 10.8578 40.6323 11.1176 40.9573C11.4216 41.3377 11.2892 41.4034 13.2891 39.8796C13.8202 39.4749 14.3623 39.0609 14.4939 38.9595C14.6255 38.8582 14.7507 38.7752 14.772 38.7752C14.8212 38.7752 14.9751 39.2802 15.1551 40.0319C15.2318 40.3528 15.3153 40.682 15.3404 40.7634C15.3808 40.8943 15.2535 40.9153 14.2353 40.9458C13.2723 40.9747 13.0244 41.012 12.7148 41.1747C12.2067 41.4418 11.4811 42.153 11.2498 42.6107C10.7792 43.5417 10.789 43.2601 10.7931 55.6542C10.7952 61.9841 10.7779 67.1819 10.7547 67.205C10.7315 67.2281 10.3789 67.2434 9.97102 67.239C9.07128 67.2294 8.64144 67.3347 8.35992 67.6335C8.14158 67.8654 7.91343 68.4044 7.911 68.6942C7.90758 69.1091 8.22969 69.7834 8.65116 70.2434L9.09774 70.7307H5.80363C2.93558 70.7307 2.50961 70.7481 2.50961 70.8654C2.50961 70.9847 5.78959 71 31.4898 71C57.19 71 60.47 70.9847 60.47 70.8654C60.47 70.7507 60.2329 70.7307 58.8767 70.7307H57.2834L57.6026 70.3941C58.2593 69.7014 58.355 69.4923 58.355 68.7493C58.355 68.1448 58.3273 68.0332 58.1058 67.7431C57.7935 67.3344 57.4401 67.2311 56.3525 67.2305L55.52 67.23V55.6662V44.1025L55.7539 43.8849C56.1425 43.5234 56.4202 42.8799 56.418 42.3462C56.4112 40.7354 54.6886 39.7128 53.2517 40.4667L52.7651 40.7219L50.8087 38.891C48.6832 36.9019 48.7296 36.9846 49.8949 37.265C50.2764 37.3567 51.9127 37.7198 53.6299 38.0936C54.1992 38.2175 54.7868 38.3206 54.9358 38.3226L55.2066 38.3264L55.4574 37.137C55.5953 36.4829 55.8235 35.4226 55.9645 34.7808C56.6409 31.7008 57.1206 29.5047 57.5035 27.7344C57.6477 27.0679 57.8477 26.1436 57.948 25.6805L58.1304 24.8382L57.6123 24.1096C57.3273 23.7088 56.9375 23.1512 56.746 22.8704C56.3491 22.2885 56.3471 22.4264 56.781 20.5534C56.9241 19.9363 57.0675 19.2272 57.0998 18.9777L57.1585 18.524L56.2267 18.3222C55.7143 18.2112 54.8292 18.0216 54.2599 17.901C53.6907 17.7803 53.179 17.6643 53.123 17.6432C53.0669 17.6222 52.6416 17.0668 52.178 16.4091C51.7143 15.7515 51.2447 15.0921 51.1343 14.9437C51.0241 14.7953 50.8859 14.5831 50.8274 14.472C50.6944 14.2195 50.5214 14.2176 50.1199 14.4641C48.8716 15.2305 47.0411 16.2448 46.9064 16.2448C46.7351 16.2448 45.1846 15.9162 43.9356 15.6151C42.7382 15.3264 42.7884 15.3027 42.6049 16.2448C42.5184 16.6891 42.4339 17.0527 42.4171 17.0527C42.3703 17.0527 42.1991 16.3784 42.0666 15.6716C42.0007 15.3203 41.8589 14.6089 41.7512 14.0905C41.5453 13.0985 41.4124 12.4406 41.1344 11.0386C40.5956 8.32172 40.4433 7.69401 40.3117 7.64715C40.2364 7.6204 39.7809 7.35255 39.2994 7.05202C38.8179 6.75141 38.3522 6.46435 38.2644 6.41399C37.5958 6.03017 37.3584 5.82425 37.3164 5.59132C37.1812 4.8418 36.6143 2.10574 36.5279 1.78556C36.4314 1.42831 36.4151 1.41484 36.1409 1.46825C35.9836 1.49895 35.5713 1.57902 35.2248 1.64616C33.8326 1.91625 33.0386 2.07944 32.519 2.20242C31.5612 2.42916 31.563 2.4297 29.4511 1.16467C28.3796 0.52287 27.4382 -0.00125442 27.3589 2.25512e-06C27.2785 0.00125893 26.8197 0.546926 26.3212 1.23424ZM28.7719 1.14008C30.9985 2.45833 31.1771 2.60087 30.603 2.60087C30.4784 2.60087 30.1307 2.65904 29.8305 2.73004C29.3068 2.854 28.4181 3.03649 27.1698 3.27652C26.848 3.33845 26.2463 3.4564 25.8325 3.5388C25.4189 3.62121 25.0643 3.67264 25.0448 3.65307C24.9976 3.60604 27.3375 0.356809 27.4185 0.356809C27.4353 0.356809 28.0442 0.709307 28.7719 1.14008ZM36.3265 2.47233C36.6346 4.0702 36.9966 5.87066 37.2005 6.81972C37.2695 7.14062 37.3904 7.74652 37.4693 8.16616C37.5483 8.5858 37.6387 9.00993 37.6704 9.10867C37.7021 9.2074 37.7773 9.57094 37.8377 9.91653C37.9463 10.5386 37.9185 10.7156 37.6736 10.9642C37.5629 11.0766 34.892 14.4765 34.5048 14.998C34.3656 15.1855 32.573 17.4653 31.3891 18.9605C31.2444 19.1432 31.2377 19.1414 30.4441 18.7045C30.0044 18.4625 29.5769 18.2366 29.494 18.2025C29.4111 18.1685 29.1884 18.0434 28.999 17.9245C28.8097 17.8057 28.1486 17.4333 27.53 17.0971C25.9039 16.2133 25.6529 16.0745 25.0724 15.7389C24.7851 15.5728 24.528 15.4369 24.501 15.4369C24.474 15.4369 24.0813 15.2227 23.6283 14.9607C23.1754 14.6988 22.6102 14.3858 22.3723 14.2651C21.6928 13.9203 21.6252 13.8224 21.4651 12.9523C21.3849 12.5169 21.3195 12.0576 21.3196 11.9317C21.3196 11.8059 21.2837 11.6645 21.2397 11.6175C21.1637 11.5365 21.1145 11.3154 20.8712 9.96141C20.8136 9.64051 20.7099 9.15579 20.6409 8.88426C20.5719 8.61273 20.4486 8.04722 20.3668 7.62758C20.2851 7.20794 20.1588 6.56165 20.0863 6.19138C20.0137 5.82111 19.9341 5.41475 19.9093 5.28846C19.866 5.06719 19.8871 5.05489 20.4796 4.95634C20.8179 4.89996 21.6957 4.73067 22.4302 4.58014C23.1647 4.42952 23.8457 4.30636 23.9433 4.30636C24.041 4.30636 24.3108 4.24972 24.5428 4.18043C24.7749 4.11113 25.309 3.98663 25.7298 3.90378C26.4502 3.76195 26.7701 3.69733 28.4298 3.35856C30.1113 3.01531 30.5009 2.94018 31.1968 2.82474C31.605 2.75715 31.9763 2.6787 32.022 2.6506C32.0676 2.62251 32.4424 2.53616 32.8548 2.45878C34.0239 2.23949 34.8137 2.08124 35.4498 1.93896C35.7716 1.86698 36.0734 1.81752 36.1207 1.8291C36.1678 1.84058 36.2605 2.13007 36.3265 2.47233ZM33.5598 5.47328C33.4856 5.52112 33.1786 5.56089 32.8775 5.56169C32.4743 5.56268 32.2138 5.62202 31.8875 5.78709C31.3436 6.0623 31.2431 6.06499 30.9723 5.81124L30.7581 5.61053L30.4264 6.01275C30.244 6.23402 29.994 6.50959 29.8707 6.62511C29.4093 7.05786 28.636 7.21449 28.1598 6.9716C27.9706 6.87519 27.9395 6.80392 27.9643 6.52413C27.9921 6.21158 27.9784 6.19147 27.7393 6.19273C27.4703 6.19416 27.2543 6.29299 27.2296 6.42584C27.2214 6.46964 27.062 6.4946 26.8753 6.48122C26.395 6.44693 26.0796 6.6454 25.8198 7.14574C25.6367 7.49814 25.5361 7.59222 25.2798 7.6502C24.8388 7.74993 23.6927 7.52902 23.7382 7.35309C23.7566 7.28191 23.7928 7.14888 23.8186 7.0575C23.8539 6.93237 23.8243 6.89934 23.6983 6.92348C23.6005 6.94224 23.4964 7.07644 23.4474 7.24672C23.3961 7.42517 23.3057 7.53782 23.2137 7.53782C22.9664 7.53782 22.6697 7.88062 22.6697 8.16652C22.6697 8.74306 23.437 8.68795 23.6109 8.09884C23.7107 7.76052 23.6921 7.76402 24.4064 7.94866C24.8577 8.06526 25.0219 8.07119 25.3401 7.98232C25.773 7.86141 25.8766 7.76393 26.1348 7.23406C26.3137 6.86693 26.3182 6.86442 26.8657 6.83821C27.3373 6.81559 27.4537 6.8427 27.6757 7.0268C28.0808 7.36305 28.296 7.44806 28.7424 7.44806C29.2922 7.44806 29.7607 7.19753 30.3546 6.58598C30.6455 6.28644 30.8639 6.1254 30.9001 6.18375C30.9971 6.34039 31.5577 6.29604 31.9398 6.10162C32.1905 5.97406 32.4703 5.92209 32.9062 5.92209C33.3158 5.92209 33.5863 5.87568 33.7197 5.78233C34.0706 5.53737 33.9179 5.2425 33.5598 5.47328ZM39.2635 7.41081C39.8707 7.74939 39.8335 7.83287 39.0273 7.94058C38.6002 7.99758 38.5998 7.9974 38.5998 7.73018C38.5998 7.42167 38.6784 7.17877 38.7781 7.17877C38.8161 7.17877 39.0345 7.28316 39.2635 7.41081ZM23.3897 7.85791C23.3897 8.00198 23.1868 8.25592 23.0716 8.25592C22.8998 8.25592 22.9038 8.12505 23.0811 7.94812C23.2209 7.80881 23.3897 7.75944 23.3897 7.85791ZM34.0661 8.2131C33.5937 8.53481 33.0221 8.7506 32.3846 8.8479C31.8815 8.92465 31.7972 8.96908 31.3515 9.39214C31.0817 9.64814 30.8151 9.7879 30.3165 9.93457C29.6668 10.1257 29.6404 10.1268 29.5098 9.96751C29.3144 9.72919 29.025 9.60236 28.6768 9.60236C28.1505 9.60236 26.7478 9.94265 26.0935 10.2291C25.4925 10.4921 25.4292 10.5014 24.6265 10.4452C23.8277 10.3892 23.7762 10.3966 23.5504 10.6003C23.4199 10.7179 23.2873 10.9423 23.2558 11.099C23.2044 11.3543 23.2177 11.3788 23.3842 11.3353C23.4862 11.3087 23.5697 11.2171 23.5697 11.1317C23.5697 10.844 23.8871 10.6533 24.2632 10.7149C25.3993 10.9011 25.4945 10.8938 26.2358 10.5634C26.6257 10.3898 27.2283 10.1804 27.5748 10.0983C28.2327 9.94229 29.0693 9.94139 29.1204 10.0966C29.1367 10.1462 28.9673 10.2971 28.7437 10.4318C28.0606 10.8433 27.9723 11.4082 28.5815 11.4695C28.8008 11.4916 28.9106 11.4277 29.1799 11.1212C29.3614 10.9148 29.5098 10.6938 29.5098 10.6301C29.5098 10.56 29.763 10.4569 30.1515 10.3688C30.9462 10.1885 31.2276 10.0461 31.6533 9.60855C31.9398 9.31422 32.0866 9.24475 32.682 9.12195C33.6788 8.9163 34.855 8.26131 34.694 8.00153C34.6055 7.85863 34.5679 7.87129 34.0661 8.2131ZM39.7393 8.29542C39.6655 8.48724 38.4876 9.96913 38.4437 9.92542C38.423 9.90468 38.4347 9.56044 38.4697 9.16037C38.5302 8.46839 38.5448 8.43069 38.769 8.38599C38.8987 8.36022 39.1061 8.30448 39.2298 8.2622C39.5955 8.13716 39.7952 8.15018 39.7393 8.29542ZM40.6103 10.1193C40.8003 11.0939 41.011 12.1337 41.0786 12.4299C41.1461 12.7261 41.329 13.6147 41.4852 14.4047C41.6413 15.1946 41.8212 16.1034 41.885 16.4243C41.9488 16.7452 42.0437 17.2299 42.0959 17.5015C42.341 18.7759 42.4087 19.1126 42.5291 19.6558C42.6452 20.1793 42.8191 21.0164 43.1037 22.4227C43.1569 22.6856 43.188 22.9539 43.1727 23.0191C43.1543 23.097 42.8683 22.958 42.3349 22.6117C41.8894 22.3226 41.4439 22.0483 41.3449 22.0021C41.0189 21.85 39.9263 21.1935 39.7254 21.029C39.6171 20.9402 39.2773 20.7337 38.9702 20.5701C38.6631 20.4065 37.9378 19.987 37.3584 19.6378C36.779 19.2886 35.6366 18.6079 34.8198 18.1251C34.0031 17.6423 33.3348 17.2052 33.3348 17.1536C33.3348 17.0282 33.5124 16.7771 34.0773 16.1034C34.3371 15.7935 34.5498 15.5156 34.5498 15.4858C34.5498 15.456 34.7743 15.1601 35.0487 14.8283C35.3231 14.4966 35.5943 14.168 35.6512 14.098C36.0067 13.662 38.3271 10.669 38.5102 10.4102C38.9085 9.84741 40.1409 8.34568 40.2037 8.34649C40.2373 8.34703 40.4203 9.14475 40.6103 10.1193ZM20.6613 10.4836C20.7214 10.7642 20.7969 11.1378 20.8291 11.3141L20.8876 11.6346L20.3161 11.7356C20.0019 11.791 19.5576 11.8719 19.3289 11.9152L18.9131 11.994L19.3352 11.4041C20.334 10.0085 20.4448 9.8668 20.497 9.91877C20.5272 9.94893 20.6011 10.2031 20.6613 10.4836ZM28.9671 10.8641C28.8649 11.0544 28.6379 11.1863 28.555 11.1035C28.4997 11.0485 28.8783 10.6795 28.9899 10.6795C29.0318 10.6795 29.0215 10.7625 28.9671 10.8641ZM34.622 11.0749C33.97 11.6736 33.49 11.8606 32.3607 11.9558C31.2825 12.0468 30.6842 12.2477 30.4558 12.5954C30.3409 12.7701 30.1833 12.8391 29.7123 12.9209C29.0577 13.0346 28.4691 13.2855 27.7128 13.7732C27.1736 14.1209 26.9466 14.1531 26.4048 13.9585C26.2068 13.8873 25.9162 13.8273 25.7592 13.8252C25.3968 13.8201 24.8987 14.2153 24.9376 14.4768C24.9744 14.7245 25.1556 14.7692 25.2143 14.5451C25.3037 14.204 25.6663 14.1293 26.3601 14.3087C27.0666 14.4915 27.275 14.4525 27.9112 14.0184C28.4984 13.6177 28.791 13.4878 29.5567 13.2878C30.1673 13.1282 30.2802 13.1207 30.403 13.2311C30.6737 13.4742 30.9799 13.4845 31.3114 13.2617C31.4831 13.1463 31.6378 12.9785 31.655 12.8887C31.6828 12.7451 31.6316 12.7294 31.2281 12.7572C30.976 12.7747 30.7697 12.7566 30.7697 12.717C30.7699 12.5569 31.4602 12.3759 32.5121 12.2603C33.4144 12.1611 33.7017 12.0929 34.0333 11.8991C34.5699 11.5855 35.2698 10.967 35.2698 10.8065C35.2698 10.5863 35.0589 10.6738 34.622 11.0749ZM21.0316 12.3626C21.1785 12.9543 21.2631 13.5519 21.1999 13.5519C21.1459 13.5519 20.1398 13.0228 19.4552 12.6343L19.0757 12.4189L19.3652 12.3179C19.5244 12.2624 19.8572 12.1891 20.1047 12.1552C20.3522 12.1212 20.6155 12.0593 20.6897 12.0175C20.9042 11.8971 20.92 11.9129 21.0316 12.3626ZM19.9098 13.274C20.3466 13.5256 20.7186 13.7314 20.7366 13.7314C20.7546 13.7314 21.2094 13.9881 21.7472 14.3018C22.5993 14.7987 23.3455 15.2104 24.5597 15.8536C24.7329 15.9453 24.8949 16.0414 24.9197 16.0671C24.9445 16.0928 25.066 16.1623 25.1898 16.2216C25.3135 16.281 25.6983 16.4918 26.0448 16.6902C26.3913 16.8886 26.7558 17.0872 26.8548 17.1316C26.9538 17.1761 27.3498 17.3986 27.7349 17.6262C28.1199 17.8538 28.4743 18.04 28.5224 18.04C28.6758 18.04 28.6242 18.1286 27.8673 19.1638C27.4589 19.7223 27.064 20.268 26.9898 20.3765C26.9155 20.4849 26.7535 20.7036 26.6298 20.8624C26.506 21.0211 26.02 21.6867 25.5498 22.3415C25.0795 22.9963 24.4914 23.801 24.2428 24.1297C23.9941 24.4584 23.6747 24.8991 23.533 25.1089C23.3913 25.3186 23.249 25.4903 23.2169 25.4903C23.1848 25.4903 23.0822 25.6216 22.9889 25.7821C22.74 26.2101 21.8263 27.4651 21.7635 27.4651C21.7339 27.4651 21.5975 26.9098 21.4603 26.2309C21.0044 23.9748 20.9765 23.8333 20.8712 23.2463C20.8136 22.9254 20.7083 22.4205 20.6373 22.1242C20.5033 21.5659 20.0421 19.2959 19.8281 18.1424C19.7607 17.7789 19.6832 17.4113 19.6557 17.3252C19.6284 17.2391 19.5422 16.8295 19.4643 16.415C19.3243 15.6703 19.2238 15.164 18.9434 13.7909C18.8643 13.4039 18.7997 12.9885 18.7997 12.8677C18.7997 12.6159 18.7104 12.5832 19.9098 13.274ZM51.1099 15.4584C51.4317 15.9129 51.8912 16.5626 52.1312 16.9021L52.5674 17.5195L52.2662 17.4578C51.7787 17.3581 49.6179 16.8745 48.5077 16.6167L47.4805 16.3782L48.0126 16.0549C48.3054 15.8772 48.8284 15.5772 49.1749 15.3885C49.5214 15.1996 49.9459 14.9515 50.1183 14.8371C50.2907 14.7227 50.4527 14.6297 50.4783 14.6306C50.504 14.6314 50.7882 15.0039 51.1099 15.4584ZM44.7569 16.1119C45.3464 16.2348 45.9915 16.3791 46.1903 16.4325L46.5518 16.5296L46.2884 16.6875C46.1434 16.7743 45.6401 17.0673 45.1699 17.3386C44.6996 17.6098 43.9921 18.02 43.5978 18.2501C43.2033 18.4802 42.8333 18.6684 42.7754 18.6684C42.5667 18.6684 42.5441 17.9055 42.7299 17.1277C42.8282 16.7161 42.9349 16.233 42.9671 16.054C43.0254 15.7305 43.0276 15.7291 43.3553 15.8085C43.5366 15.8525 44.1673 15.9891 44.7569 16.1119ZM48.6349 16.9653C49.3279 17.1149 50.3202 17.3342 50.8399 17.4528C51.3597 17.5714 52.0176 17.7145 52.302 17.7708L52.819 17.8731L54.4256 20.1463L56.032 22.4196L55.8711 23.0349C55.7827 23.3733 55.708 23.7424 55.7052 23.855C55.6957 24.2266 55.6692 24.224 52.6399 23.5584C52.1202 23.4441 51.1786 23.2395 50.5474 23.1036C49.9163 22.9677 49.3999 22.8186 49.3999 22.7726C49.3999 22.7265 49.5826 21.9596 49.8059 21.0685C50.0292 20.1774 50.1892 19.4257 50.1616 19.3981C50.0841 19.3209 49.2927 19.1256 49.0391 19.1211C48.83 19.1175 48.8019 19.1688 48.6588 19.8129C48.5738 20.1954 48.4369 20.9192 48.3546 21.4211C48.2722 21.923 48.1729 22.3852 48.1339 22.4481C48.0772 22.5396 47.9217 22.5305 47.359 22.403C46.0028 22.0958 44.2207 21.7023 43.7603 21.6084C43.236 21.5015 43.232 21.4938 42.9709 20.1046C42.9014 19.7343 42.8195 19.3683 42.789 19.2911C42.7162 19.1071 42.8862 18.9704 43.8649 18.4262C44.8317 17.8887 46.2629 17.0672 46.6962 16.8011C46.8675 16.6959 47.0902 16.6286 47.1912 16.6517C47.2923 16.6747 47.9419 16.8158 48.6349 16.9653ZM33.3727 17.6218C33.4509 17.6879 34.7501 18.4798 36.2598 19.3815C37.7696 20.2831 39.2478 21.1778 39.5449 21.3696C39.8419 21.5614 40.1769 21.7586 40.2894 21.8077C40.4019 21.8568 40.7166 22.039 40.9886 22.2126C41.2607 22.3862 41.5045 22.5282 41.5304 22.5282C41.6065 22.5282 42.9195 23.3767 42.9193 23.4258C42.9192 23.4505 42.4029 23.5682 41.772 23.6872C41.1411 23.8063 40.5368 23.9354 40.4293 23.9741C40.3217 24.0128 39.8357 24.1058 39.3493 24.1808C38.545 24.3048 38.0633 24.4017 36.1248 24.8298C35.4338 24.9824 34.8131 25.1119 33.3798 25.4027C32.8601 25.5081 32.1716 25.6486 31.8498 25.7148C31.3096 25.8259 30.3197 26.0251 28.7448 26.3397C27.9841 26.4916 26.4574 26.8029 25.5948 26.9818C25.2483 27.0537 24.6205 27.1722 24.1998 27.2451C23.779 27.318 23.3335 27.4146 23.2097 27.4597C23.086 27.505 22.7877 27.5682 22.547 27.6003L22.1092 27.6587L22.5697 26.9945C22.8228 26.6291 23.1515 26.1945 23.2999 26.0287C23.4483 25.8629 23.5697 25.7013 23.5697 25.6695C23.5697 25.6376 23.7824 25.3234 24.0422 24.9712C24.6633 24.1291 25.9405 22.375 26.4498 21.6643C27.4513 20.2668 28.5805 18.7194 28.7482 18.5146L28.9315 18.2908L29.4682 18.5779C30.2696 19.0067 30.6918 19.2395 31.0211 19.4341C31.2166 19.5497 31.339 19.5771 31.3811 19.5147C31.7831 18.9179 32.9878 17.5015 33.0932 17.5015C33.1688 17.5015 33.2946 17.5556 33.3727 17.6218ZM54.935 18.3652C55.4795 18.4868 56.1323 18.6295 56.3858 18.6823L56.8465 18.7783L56.6259 19.778C56.2263 21.5887 56.1458 21.9339 56.1168 21.9628C56.1011 21.9785 55.7741 21.5366 55.3904 20.9807C55.0065 20.4248 54.4331 19.6064 54.1161 19.1621C53.7991 18.7178 53.4958 18.2795 53.4419 18.1882C53.3298 17.998 53.2483 17.9883 54.935 18.3652ZM17.6711 20.4636C17.5924 20.8339 17.4321 21.6014 17.3148 22.1691C17.1975 22.7369 16.9745 23.7871 16.8193 24.503C16.664 25.2188 16.4412 26.2488 16.3241 26.7919C15.3641 31.2433 15.4482 30.9242 15.2404 30.9035C14.8407 30.8635 10.187 30.608 8.83215 30.5515L7.36964 30.4906L7.36874 30.2569C7.36757 29.9483 6.98975 29.1498 6.65072 28.7396C6.50159 28.5592 6.37964 28.3624 6.37964 28.3023C6.37964 28.2422 6.91631 27.7911 7.57214 27.2998C8.72073 26.4394 9.6166 25.7596 11.9006 24.0155C12.4869 23.5677 13.0539 23.1415 13.1606 23.0684C13.2674 22.9952 13.7475 22.6317 14.2277 22.2605C14.7078 21.8893 15.4494 21.3231 15.8754 21.0022C16.3014 20.6813 16.9008 20.2272 17.2073 19.993C17.5392 19.7395 17.7747 19.6124 17.7895 19.6788C17.803 19.7402 17.7499 20.0934 17.6711 20.4636ZM19.8462 21.8925C20.0504 21.9849 20.2414 22.0993 20.2707 22.1464C20.3268 22.2372 20.6148 23.607 21.1337 26.2533C21.1821 26.5002 21.2909 27.0152 21.3754 27.3978C21.527 28.0838 21.533 28.0934 21.807 28.0895C21.9597 28.0874 22.267 28.0449 22.4897 27.9951C23.3069 27.8124 24.1599 27.654 24.351 27.6494C24.496 27.6459 24.7088 27.8608 25.1682 28.475C26.0514 29.6555 26.035 29.5688 25.3614 29.495C24.7935 29.4329 21.4048 29.1296 18.0122 28.8373C16.5913 28.7149 16.2797 28.6635 16.2797 28.5521C16.2797 28.4775 16.3598 28.071 16.4577 27.649C16.5556 27.227 16.7626 26.2758 16.9175 25.5352C17.434 23.0683 17.5928 22.5236 17.8785 22.2387C18.3802 21.7383 19.1908 21.5956 19.8462 21.8925ZM45.0349 22.2525C45.7279 22.4033 46.6787 22.6102 47.1477 22.7123C47.6168 22.8143 48.0101 22.9073 48.0217 22.919C48.0333 22.9306 47.9633 23.3804 47.8659 23.9186C47.7687 24.4567 47.7196 24.9236 47.757 24.9561C47.7943 24.9885 48.0211 25.0677 48.2609 25.1321C48.796 25.2757 48.7768 25.3001 49.0525 24.1282C49.2882 23.1262 49.2316 23.1624 50.2099 23.3867C51.657 23.7183 53.3173 24.0824 54.3802 24.3013L55.5354 24.5392L55.4876 24.8128C55.2809 25.9944 55.2257 26.1317 54.8664 26.358C54.6738 26.4792 54.4485 26.6034 54.3656 26.6341C54.2827 26.6647 53.6277 27.0105 52.9099 27.4025C52.1922 27.7946 51.0312 28.4138 50.3299 28.7788L49.0549 29.4423L48.4174 28.5404C48.0667 28.0444 47.7799 27.6229 47.7799 27.6038C47.7799 27.5848 47.8963 27.5437 48.0386 27.5125C48.4505 27.4222 48.7062 27.0843 48.7163 26.6169C48.7271 26.1134 48.4982 25.8561 47.9775 25.7865C47.653 25.7431 47.5755 25.7701 47.3342 26.0108C47.1213 26.2233 47.0599 26.3636 47.0599 26.6382C47.0599 27.0298 47.3348 27.4641 47.584 27.4666C47.667 27.4674 47.2692 27.7454 46.6999 28.0843L45.6649 28.7005L45.4585 28.4643C45.2385 28.2124 43.2364 25.6047 43.0099 25.2748C42.9356 25.1667 42.6834 24.8319 42.4495 24.5309L42.0241 23.9835L42.3145 23.9347C43.5252 23.7307 43.6399 23.6876 43.6399 23.4358C43.6399 23.3029 43.5791 22.9616 43.5049 22.6773C43.318 21.962 43.3265 21.8682 43.5724 21.9287C43.6837 21.9559 44.3419 22.1017 45.0349 22.2525ZM57.4065 24.3485L57.628 24.6188L57.1815 24.5535C56.9358 24.5176 56.7063 24.4609 56.6714 24.4277C56.6365 24.3944 56.6952 24.2298 56.8018 24.0619C56.9767 23.7864 57.0051 23.7722 57.0904 23.9173C57.1424 24.0058 57.2846 24.1998 57.4065 24.3485ZM41.8071 24.2561C41.9054 24.3672 42.0441 24.5459 42.1154 24.6532C42.1865 24.7605 42.6555 25.3866 43.1573 26.0445C44.5234 27.8355 44.8805 28.2968 45.0793 28.5275C45.3411 28.8312 45.3073 28.9196 44.8317 29.1776C44.5969 29.3049 44.0404 29.6239 43.5949 29.8866C42.3189 30.6387 41.7671 30.9591 40.8499 31.4809C40.3796 31.7484 39.6304 32.1795 39.1848 32.4389C36.6485 33.9158 36.7998 33.8403 36.7998 33.6283C36.7998 33.521 36.8427 33.2921 36.895 33.1195C36.9473 32.9471 37.0857 32.3415 37.2025 31.7737C37.4138 30.7472 37.7114 29.3722 38.2419 26.9714C38.3946 26.2803 38.5674 25.4975 38.6257 25.232C38.7472 24.6793 38.7453 24.6806 39.8599 24.4556C40.2806 24.3706 40.8274 24.2506 41.0749 24.1891C41.3224 24.1274 41.5482 24.0718 41.5767 24.0655C41.6051 24.0593 41.7089 24.145 41.8071 24.2561ZM57.1739 24.916L57.5228 24.976L56.6789 25.412C56.2148 25.6517 55.8221 25.8482 55.8063 25.8487C55.7907 25.849 55.9119 25.606 56.0759 25.3085C56.3385 24.8321 56.401 24.7729 56.5995 24.8117C56.7235 24.836 56.982 24.8829 57.1739 24.916ZM36.3498 25.2668C36.3498 25.3194 35.8089 26.1023 35.4513 26.5675C35.3184 26.7403 35.1832 26.9423 35.1508 27.0163C35.1183 27.0904 34.8989 27.4158 34.6632 27.7393C34.4276 28.0629 33.731 29.0324 33.1152 29.8937C31.5908 32.0257 29.9667 34.3 29.465 35.0052C29.2367 35.3261 28.9314 35.7545 28.7865 35.9573L28.5232 36.3259L25.3721 34.7455C23.639 33.8762 22.2223 33.1449 22.2237 33.1202C22.2259 33.0829 22.9291 32.525 23.5527 32.0657C23.6363 32.0041 24.1393 31.6204 24.6704 31.213C25.2015 30.8055 25.8191 30.3362 26.0429 30.1699C26.2667 30.0037 26.4498 29.8171 26.4498 29.7552C26.4498 29.6933 26.0845 29.1628 25.6382 28.5763L24.8267 27.51L25.3457 27.4025C25.6312 27.3433 26.29 27.2088 26.8098 27.1036C27.3295 26.9984 28.0383 26.8528 28.3848 26.7801C28.7313 26.7073 29.338 26.5901 29.7329 26.5197C30.1278 26.4491 30.5126 26.3678 30.5879 26.339C30.6632 26.3101 31.0488 26.2254 31.4448 26.1507C31.8408 26.076 32.4281 25.9608 32.7498 25.8945C33.0716 25.8282 33.7601 25.6876 34.2798 25.582C34.7996 25.4763 35.3666 25.3566 35.5398 25.3158C35.9113 25.2284 36.3498 25.2018 36.3498 25.2668ZM57.6208 25.7821C57.5512 26.0907 57.3696 26.9086 57.2175 27.5998C57.0654 28.2909 56.8254 29.3816 56.684 30.0234C55.9777 33.2306 55.4282 35.7656 55.1701 37.0069C55.09 37.3919 54.9841 37.7044 54.9348 37.7015C54.8854 37.6984 54.2709 36.8784 53.5693 35.8793C52.8676 34.8801 52.208 33.9415 52.1033 33.7934C49.9013 30.6782 49.3715 29.9192 49.3384 29.8332C49.2999 29.7333 49.8155 29.4372 52.0549 28.2733C52.6489 27.9645 53.1754 27.682 53.2249 27.6455C53.2744 27.6089 53.7402 27.3544 54.2599 27.08C54.7797 26.8054 55.7517 26.2756 56.42 25.9025C57.0882 25.5296 57.6603 25.2237 57.6913 25.2227C57.7223 25.2218 57.6906 25.4736 57.6208 25.7821ZM38.0598 26.3479C38.0598 26.4219 37.46 29.188 37.2531 30.0682C37.1544 30.4879 36.9945 31.215 36.8977 31.684C36.8008 32.153 36.6364 32.9156 36.5324 33.3787C36.4283 33.8418 36.3661 34.2435 36.3942 34.2715C36.4223 34.2995 36.9806 34.4381 37.635 34.5794C40.2028 35.134 40.8176 35.2718 41.1477 35.3667L41.4905 35.4654L41.1527 35.8411C40.3104 36.7784 38.9991 38.1468 38.9434 38.1469C38.8922 38.1469 37.8738 37.6024 35.6748 36.399C35.4768 36.2907 35.0313 36.048 34.6848 35.8595C34.3383 35.6711 33.6903 35.314 33.2448 35.0659C32.331 34.5569 31.8177 34.2779 31.1995 33.9545L30.7743 33.7321L31.1267 33.2241C31.5783 32.5735 32.1294 31.7958 32.7335 30.9572C33.6065 29.7451 34.5598 28.4163 35.0456 27.7344C35.9137 26.5159 36.245 26.307 37.3173 26.3018C37.7258 26.2998 38.0598 26.3206 38.0598 26.3479ZM4.17912 27.6052C4.73091 27.7555 5.17075 28.0831 5.60536 28.6676C6.74927 30.2057 6.14635 32.3283 4.33464 33.1415C3.66522 33.4421 2.71868 33.4182 1.98689 33.0823C0.649928 32.4686 -0.0215661 30.9895 0.392167 29.5693C0.701499 28.5075 1.52626 27.7455 2.61356 27.5167C3.21386 27.3905 3.4377 27.4032 4.17912 27.6052ZM48.1512 28.6938C48.4172 29.0734 48.6653 29.4335 48.7026 29.494C48.7487 29.569 48.508 29.7496 47.9478 30.0605C47.4953 30.3116 47.0916 30.5171 47.0505 30.5171C46.948 30.5171 45.8782 29.0711 45.9101 28.9757C45.9479 28.8626 47.3507 28.0247 47.5212 28.0134C47.6075 28.0076 47.8658 28.2867 48.1512 28.6938ZM18.7997 29.2184C19.5175 29.2876 20.854 29.4061 21.7697 29.4818C23.9182 29.6594 25.3603 29.7982 25.6256 29.8529C25.8157 29.892 25.7813 29.9377 25.2745 30.3189C24.9655 30.5513 24.2429 31.1051 23.6687 31.5494C23.0945 31.9938 22.5235 32.4258 22.3997 32.5094C22.276 32.593 21.5875 33.1112 20.8697 33.6608C18.3768 35.57 17.1687 36.4873 16.9124 36.6658C16.3538 37.0548 11.8671 40.502 11.8196 40.5786C11.693 40.7829 11.6308 40.6257 11.7012 40.2787C11.7437 40.069 11.8792 39.3317 12.0022 38.6406C12.1254 37.9494 12.3276 36.8386 12.4515 36.1721C12.5755 35.5056 12.7808 34.3746 12.9077 33.6587C13.0347 32.9429 13.1897 32.0946 13.2522 31.7737L13.3658 31.1903H14.5188H15.6719L15.8855 30.2926C16.003 29.799 16.1209 29.3018 16.1475 29.1879C16.2019 28.9544 16.0416 28.9526 18.7997 29.2184ZM45.9074 29.6593C46.1206 29.9279 46.4312 30.3319 46.5979 30.5569C46.7646 30.7819 46.9307 30.9659 46.967 30.9659C47.0034 30.9659 47.4482 30.7409 47.9554 30.466C48.4627 30.191 48.9285 29.9855 48.9905 30.0093C49.0526 30.0331 49.3955 30.47 49.7524 30.9804C50.1094 31.4908 51.3489 33.2599 52.5069 34.9117C53.6649 36.5636 54.6038 37.9229 54.5936 37.9323C54.57 37.9542 53.3091 37.693 51.7399 37.3415C51.0717 37.1918 50.0695 36.9732 49.513 36.8557C48.9563 36.7383 48.4095 36.5821 48.2979 36.5087C48.1863 36.4352 47.4087 35.7337 46.57 34.9496C44.5204 33.0335 44.2138 32.7611 44.1079 32.7611C44.0581 32.7611 43.6642 33.1449 43.2325 33.6139C42.8009 34.0829 42.4122 34.4666 42.3688 34.4666C42.3254 34.4666 42.2899 34.393 42.2899 34.3031C42.2899 34.0086 42.011 33.3155 41.8709 33.2619C41.7558 33.2178 41.7442 33.2703 41.7983 33.5912C41.8337 33.8011 41.9158 34.1497 41.9809 34.3657C42.083 34.705 42.08 34.7877 41.9591 34.9716C41.8822 35.0888 41.8134 35.1847 41.8064 35.1847C41.7995 35.1847 41.6522 35.1426 41.4792 35.0913C41.3063 35.0398 40.6991 34.8976 40.1299 34.7749C37.8611 34.2865 37.1454 34.1232 37.1068 34.0847C37.0608 34.0388 38.0738 33.4263 40.6699 31.9305C44.3107 29.8326 45.0566 29.4005 45.2149 29.2974C45.3139 29.2328 45.4231 29.1779 45.4574 29.1753C45.4918 29.1728 45.6943 29.3905 45.9074 29.6593ZM10.8797 30.9744C12.0429 31.0274 13.0106 31.0866 13.03 31.1059C13.0495 31.1253 13.0165 31.3744 12.9569 31.6594C12.8972 31.9445 12.752 32.723 12.6343 33.3895C12.5166 34.0559 12.3154 35.187 12.1871 35.9028C12.0589 36.6187 11.876 37.658 11.7808 38.2126C11.5924 39.3096 11.3346 40.5955 11.2952 40.6348C11.2816 40.6484 10.9293 40.2132 10.5126 39.6677C10.0957 39.1223 9.43066 38.2547 9.03465 37.7396C8.63865 37.2247 8.0919 36.5112 7.81964 36.1541C7.54739 35.7972 6.99425 35.0756 6.59042 34.5507L5.8561 33.5964L6.33535 33.1276C6.87914 32.5956 7.26731 31.8595 7.34381 31.215L7.39592 30.7763L8.08029 30.8272C8.45667 30.8552 9.71641 30.9214 10.8797 30.9744ZM23.5932 34.2074C24.496 34.6573 25.2485 35.0379 25.2653 35.0532C25.282 35.0685 24.4221 36.397 23.3542 38.0052L21.4126 40.9295H18.5815C16.643 40.9295 15.7313 40.8988 15.6899 40.8321C15.6298 40.735 15.4811 40.1299 15.2568 39.069C15.1168 38.4066 14.9841 38.572 16.6847 37.2888C17.3282 36.8032 18.0977 36.219 18.3947 35.9907C18.6917 35.7622 19.3802 35.2373 19.9247 34.8242C20.4692 34.411 21.1172 33.9194 21.3647 33.7316C21.6122 33.5438 21.8455 33.3901 21.8832 33.3898C21.9208 33.3896 22.6903 33.7576 23.5932 34.2074ZM48.9291 37.5947L52.5352 40.9472L52.2342 41.3405C52.0686 41.5568 51.9056 41.8206 51.8719 41.9266C51.8145 42.1071 51.7694 42.1161 51.1677 42.0666C50.8142 42.0376 49.3707 41.9661 47.9599 41.9078C46.5491 41.8495 45.3619 41.7726 45.3217 41.7369C45.2512 41.6745 45.0188 39.7245 44.6317 35.9477C44.5305 34.9603 44.4221 33.9723 44.3908 33.7522L44.3338 33.3519L44.8284 33.7971C45.1004 34.0419 46.9458 35.7508 48.9291 37.5947ZM31.2076 34.332C31.5032 34.5048 31.7694 34.6461 31.7992 34.6461C31.829 34.6461 32.0044 34.7403 32.1891 34.8555C32.3737 34.9706 32.9255 35.2768 33.4152 35.536C33.905 35.7951 34.6542 36.1998 35.0802 36.4354C35.5063 36.671 36.1181 37.0069 36.4398 37.1818C36.7616 37.3568 37.2881 37.6473 37.6098 37.8275C37.9316 38.0077 38.3062 38.2025 38.4423 38.2604C38.5785 38.3184 38.6898 38.3893 38.6898 38.418C38.6898 38.4468 38.3456 38.8382 37.9248 39.2879C37.5041 39.7376 37.1631 40.1395 37.167 40.181C37.171 40.2224 37.5939 40.6376 38.1068 41.1037C38.6197 41.5696 39.0219 41.979 39.0007 42.0133C38.9795 42.0476 38.7692 42.1039 38.5334 42.1382C38.2977 42.1726 37.9226 42.2531 37.6998 42.3171C37.2762 42.4388 36.7616 42.5693 35.8548 42.7851C35.2765 42.9228 34.5635 43.0994 33.6948 43.3202C32.6172 43.5941 32.668 43.607 32.1648 42.9331C30.9764 41.3418 30.7505 41.0621 30.6323 41.0356C30.5623 41.0199 29.9064 41.4613 29.1748 42.0163C26.3435 44.1645 24.5997 45.4764 24.4816 45.5471C24.3606 45.6196 24.2189 45.6601 23.1872 45.9171C22.9026 45.988 22.4369 46.1044 22.1522 46.1759C21.8676 46.2472 21.3715 46.3666 21.0497 46.441C20.728 46.5154 20.1407 46.6631 19.7447 46.769C19.3487 46.8749 18.8425 46.998 18.6197 47.0424C18.397 47.0869 18.102 47.169 17.9643 47.225C17.8266 47.281 17.6928 47.3058 17.6671 47.28C17.6412 47.2544 19.3075 44.6941 21.3698 41.5905C25.958 34.6857 25.5587 35.2745 25.6537 35.2745C25.6975 35.2745 26.3313 35.5774 27.0623 35.9477C27.7934 36.318 28.4615 36.6209 28.547 36.6209C28.6325 36.6209 28.7727 36.5092 28.8586 36.3725C29.1884 35.848 30.5476 34.0178 30.6073 34.0178C30.6419 34.0178 30.912 34.1592 31.2076 34.332ZM43.6869 34.6861C43.8852 34.7688 44.0464 34.9232 44.1316 35.1125C44.2071 35.2803 44.3743 36.4127 44.5167 37.7205L44.7683 40.0319H41.2341C39.2902 40.0319 37.6998 40.0078 37.6998 39.9784C37.6998 39.9248 40.0355 37.4432 41.6528 35.7785C42.3872 35.0225 43.0045 34.5668 43.3053 34.5583C43.344 34.5573 43.5157 34.6147 43.6869 34.6861ZM44.6956 40.3741C44.7564 40.4127 44.8577 40.8058 44.9206 41.2479L45.0349 42.0516L45.7994 42.0779C46.2198 42.0925 46.5978 42.1383 46.6394 42.1797C46.7467 42.2867 47.2935 48.9845 47.2025 49.0754C47.1813 49.0966 45.5703 47.6258 43.6225 45.8071C41.6746 43.9884 39.5463 42.0056 38.8928 41.4008L37.7046 40.3012L41.1448 40.3025C43.0369 40.3033 44.6347 40.3355 44.6956 40.3741ZM55.0258 40.6481C55.8668 41.0292 56.2858 41.9666 56.0177 42.8674C55.9429 43.1183 55.8001 43.3974 55.7003 43.4875C55.4954 43.6724 55.4997 43.6747 55.3792 43.3082C55.2473 42.9071 55.1115 43.031 55.1393 43.5272C55.1625 43.9437 55.1511 43.9669 54.8783 44.0618C54.3896 44.2317 54.1699 44.1928 54.1699 43.9366C54.1699 43.7096 54.0259 43.5357 53.5842 43.2298C53.0356 42.8496 52.9797 42.06 53.4648 41.542C53.7447 41.2431 53.7178 41.1667 53.2924 41.0537C53.0035 40.9768 53.0409 40.8699 53.4274 40.6663C53.8565 40.4405 54.5499 40.4325 55.0258 40.6481ZM21.203 41.2212C21.0544 41.584 17.2646 47.1204 17.2334 47.0204C17.2126 46.9535 17.1515 46.7614 17.0976 46.5936C17.0438 46.4258 16.9997 46.1703 16.9997 46.0259C16.9997 45.7548 17.5411 44.7667 17.9431 44.3041C18.0677 44.1606 18.1697 44.0165 18.1697 43.984C18.1697 43.9513 18.5122 43.5637 18.9306 43.1227C19.3491 42.6817 19.6934 42.2804 19.6958 42.2311C19.6984 42.1733 19.0639 42.1506 17.9138 42.1673C15.9227 42.1962 15.9687 42.2094 15.8673 41.5772L15.8071 41.2016L18.451 41.1764C19.905 41.1625 21.1295 41.1416 21.1719 41.13C21.2143 41.1185 21.2283 41.1596 21.203 41.2212ZM15.4785 41.4457C15.5304 41.5814 15.5952 41.8036 15.6225 41.9393L15.6722 42.1862L14.8284 42.1867C13.6804 42.1874 13.3765 42.2874 12.8118 42.8505C12.4303 43.2311 12.3228 43.4077 12.2407 43.7894C12.1689 44.1234 12.1397 47.5851 12.1397 55.7395C12.1397 62.4124 12.1059 67.2402 12.0589 67.2691C12.0146 67.2965 11.7918 67.2933 11.5639 67.2622L11.1497 67.2056V55.4763C11.1497 43.8183 11.1508 43.7437 11.3377 43.1919C11.641 42.296 12.1915 41.7691 13.3097 41.3045C13.4334 41.253 13.9508 41.2082 14.4594 41.2049L15.3842 41.1988L15.4785 41.4457ZM30.1997 42.2493C30.1219 42.5848 29.9772 43.2431 29.8782 43.7122C29.7792 44.1812 29.5565 45.2112 29.3832 46.0011C29.2101 46.791 29.0196 47.6951 28.9601 48.0102L28.8517 48.583L27.4482 48.5187C26.6763 48.4833 25.0333 48.3871 23.7971 48.3049L21.5494 48.1554L23.8871 46.3835C25.981 44.7963 26.8612 44.128 29.4984 42.1229C29.9128 41.8078 30.272 41.5701 30.2966 41.5946C30.3211 41.6191 30.2776 41.9137 30.1997 42.2493ZM50.7611 42.3347L51.7173 42.3899L51.7624 42.9517C51.7904 43.2991 51.8857 43.6521 52.0122 43.8765L52.2168 44.2395L51.8208 44.6772C50.5433 46.0894 47.6517 49.0897 47.609 49.0471C47.5812 49.0195 47.4353 47.459 47.2846 45.5795L47.0108 42.1622L48.4078 42.2208C49.1763 42.2531 50.2352 42.3042 50.7611 42.3347ZM31.6084 42.9365C31.8272 43.0277 32.3502 43.6433 33.6781 45.3726C34.6553 46.6452 35.4436 47.6968 35.4298 47.7094C35.4161 47.7219 34.8581 47.6804 34.1898 47.6171C33.5216 47.5538 32.1756 47.4314 31.1987 47.3449C29.4763 47.1927 29.4238 47.1822 29.4632 46.9985C29.9077 44.918 30.2647 43.4494 30.3619 43.3008C30.4861 43.111 30.9894 42.8203 31.2002 42.8166C31.2636 42.8154 31.4473 42.8695 31.6084 42.9365ZM55.2431 55.7852L55.2383 67.23H54.7491H54.2599L54.2422 63.0336C54.2325 60.7256 54.228 58.615 54.2321 58.3435C54.2364 58.0719 54.2443 54.8329 54.2499 51.1454L54.2599 44.4411L54.5975 44.4058C54.7831 44.3865 55.0053 44.3639 55.0915 44.3556C55.2394 44.3413 55.2477 44.9659 55.2431 55.7852ZM32.955 47.7888C34.2311 47.9029 35.2922 48.0131 35.3129 48.0339C35.3336 48.0545 34.5325 48.6852 33.5327 49.4353C32.5329 50.1854 31.4313 51.0161 31.0848 51.2815C28.3554 53.371 26.6108 54.6742 26.5818 54.6452C26.5473 54.6109 26.6515 53.9541 26.9846 52.105C27.0825 51.5619 27.2475 50.6353 27.3514 50.0459C27.4552 49.4565 27.5635 48.9365 27.5921 48.8904C27.6208 48.8442 27.9449 48.8258 28.3148 48.8495C29.0831 48.8986 29.0635 48.9168 29.2437 47.9914L29.3454 47.4684L29.9901 47.5248C30.3447 47.556 31.6789 47.6747 32.955 47.7888ZM25.7073 48.704C27.5154 48.7736 27.3639 48.6259 27.0876 50.0504C26.9187 50.9211 26.7102 52.0462 26.395 53.788C26.308 54.2693 26.2138 54.6615 26.1858 54.6593C26.1577 54.6573 25.8254 54.2433 25.4472 53.7393C25.0692 53.2353 24.3255 52.2576 23.7947 51.5664C21.8882 49.0839 22.077 49.3796 22.2263 49.1111C22.4475 48.7131 22.8945 48.5419 23.5697 48.5967C23.8915 48.6227 24.8533 48.671 25.7073 48.704ZM42.9451 51.9233C44.4852 52.2478 45.6122 53.418 45.9069 54.9989C46.1883 56.5082 45.2896 58.2197 43.8615 58.8938C43.3046 59.1567 42.3653 59.3789 42.1533 59.2978C42.0881 59.2729 41.2976 58.7146 40.3968 58.0574C39.496 57.4002 38.4353 56.6275 38.0398 56.3403C37.6443 56.0532 37.267 55.8387 37.2015 55.8639C37.1361 55.8889 37.0538 56.0999 37.0188 56.3326C36.9598 56.725 36.9986 57.0069 37.3968 59.084L37.4441 59.3309L30.7094 59.3295C23.3867 59.3281 23.3117 59.3235 22.39 58.8232C21.0676 58.1054 20.2438 56.448 20.4969 55.0148C20.6346 54.2352 20.9687 53.571 21.5107 52.9994C21.9981 52.4855 22.7969 52.0316 23.3897 51.9319L23.7047 51.8789L24.5598 53.049C25.03 53.6926 25.5768 54.439 25.7748 54.7077C26.1864 55.2665 26.8013 54.9643 26.8013 54.9643L27.5298 54.3926L27.6414 54.3013L27.8595 54.1246L28.0309 53.99L28.3398 53.7419L27.5298 54.3926C27.5298 54.3926 28.3654 53.7047 29.1048 53.1537C29.5008 52.8585 30.0677 52.4323 30.3645 52.2065L30.9043 51.796L36.6196 51.7954C41.238 51.7948 42.452 51.8193 42.9451 51.9233ZM39.8707 57.9868C41.1765 58.926 42.2548 59.7238 42.2668 59.7596C42.279 59.7953 41.9824 60.0171 41.6079 60.2524L40.927 60.6802L41.1324 61.0153C41.2453 61.1997 41.6139 61.7884 41.9515 62.3235C42.2891 62.8586 42.5742 63.3362 42.5851 63.385C42.596 63.4337 42.3935 63.6107 42.1351 63.7784L41.6653 64.0832L41.276 63.4799C41.0619 63.148 40.6896 62.5596 40.4487 62.1725C40.2078 61.7852 39.9576 61.4481 39.8927 61.4232C39.8278 61.3984 39.4806 61.5619 39.121 61.7868L38.4675 62.1955L38.0003 59.484C37.7432 57.9928 37.5107 56.6616 37.4837 56.5258C37.4566 56.39 37.4483 56.2789 37.4654 56.2789C37.4825 56.2789 38.5648 57.0475 39.8707 57.9868ZM26.4498 67.7231C26.4498 67.8408 25.5742 67.86 19.3172 67.8802L12.1847 67.9032L12.1397 68.3071L12.0947 68.7111L11.6222 68.7382L11.1497 68.7654V68.362C11.1497 67.9891 11.0323 67.7659 10.9036 67.8943C10.8738 67.924 10.8315 68.1643 10.8096 68.4284C10.776 68.8319 10.7963 68.9213 10.9372 68.9882C11.2826 69.1526 52.1431 69.1975 54.6171 69.0363L55.475 68.9803L55.5018 68.4193C55.5232 67.9697 55.5019 67.8583 55.3942 67.8583C55.2977 67.8583 55.2521 67.9787 55.2324 68.2847L55.205 68.7111H54.755C54.3417 68.7111 54.3029 68.6927 54.2797 68.4866C54.2659 68.3632 54.2347 68.1713 54.2105 68.0603L54.1665 67.8583H47.0582C40.7996 67.8583 39.9499 67.8422 39.9499 67.7237C39.9499 67.6049 40.9838 67.589 48.7154 67.589H57.4809L57.7604 67.8494C58.0858 68.1525 58.1108 68.3961 57.8584 68.8033C57.5557 69.2919 56.961 69.6167 55.925 69.8596C54.9572 70.0864 52.7668 70.1971 44.0449 70.4595C40.2233 70.5746 26.1956 70.5753 22.3997 70.4607C11.3523 70.1271 10.6111 70.0719 9.36882 69.4923C8.86797 69.2587 8.26965 68.6552 8.26965 68.3839C8.26965 68.2957 8.39538 68.0808 8.54901 67.9063L8.82828 67.589H17.6391C25.3951 67.589 26.4498 67.6051 26.4498 67.7231ZM39.5899 67.7237C39.5899 67.8421 38.8198 67.8583 33.1998 67.8583C27.5798 67.8583 26.8098 67.8421 26.8098 67.7237C26.8098 67.6053 27.5798 67.589 33.1998 67.589C38.8198 67.589 39.5899 67.6053 39.5899 67.7237ZM33.1553 68.6711C36.494 68.6662 39.2873 68.6385 39.3627 68.6097C39.6042 68.5173 39.5094 68.6567 39.2343 68.7985C38.8459 68.9988 27.6914 69.0052 27.2119 68.8054C27.0403 68.7339 26.8998 68.6507 26.8998 68.6206C26.8998 68.5904 26.9414 68.5915 26.9925 68.623C27.0434 68.6544 29.8168 68.676 33.1553 68.6711ZM61.91 70.9551C61.91 70.9798 61.9302 71 61.955 71C61.9797 71 62 70.9798 62 70.9551C62 70.9304 61.9797 70.9102 61.955 70.9102C61.9302 70.9102 61.91 70.9304 61.91 70.9551Z" fill="#3A3A3A"/>
</svg>
