<svg width="161" height="159" viewBox="0 0 161 159" fill="none" xmlns="http://www.w3.org/2000/svg">
<rect x="89.2327" width="71.7673" height="158.777" fill="#FF6666"/>
<g clip-path="url(#clip0_275_3891)">
<path fill-rule="evenodd" clip-rule="evenodd" d="M77.2738 28.438C75.7542 29.0858 74.9554 29.9786 73.6025 32.5414C72.3948 34.8286 70.844 35.443 65.5258 35.7412C61.6138 35.9605 60.4479 36.5201 58.2249 39.2463C57.1093 40.6145 56.4923 41.1771 54.6049 42.5465C53.7779 43.1467 52.9939 43.769 52.8629 43.9296C51.6473 45.4179 51.1763 46.8354 51.3343 48.5281L51.4261 49.5107L50.24 50.2312C49.5877 50.6274 49.0155 50.9516 48.9685 50.9516C48.9214 50.9516 48.4788 51.2572 47.9849 51.6309C47.4909 52.0044 46.9043 52.4249 46.6813 52.5652C45.8812 53.0683 42.7697 56.2947 42.1201 57.2947L41.4576 58.3149L25.1209 58.3941L8.78426 58.4733L8.06158 58.8296C7.582 59.066 7.22272 59.3928 6.99322 59.8012L6.64755 60.4166V87.7504V115.084H4.11515H1.58275V117.459V119.835H0.791375H0V122.131V124.427H0.791375H1.58275V127.271V130.116L5.10437 130.206C7.04134 130.255 16.1401 130.331 25.324 130.373L42.022 130.45L42.7069 130.099C43.0834 129.906 43.5682 129.539 43.7841 129.282L44.1768 128.815L44.603 129.305C44.8374 129.574 45.2985 129.941 45.6275 130.12C46.2203 130.441 46.3855 130.444 62.8795 130.443L79.5332 130.441L80.3641 129.965C80.8212 129.702 81.1951 129.388 81.1951 129.267C81.1951 128.873 81.5707 128.907 81.9291 129.333C82.1214 129.562 82.5869 129.906 82.9635 130.099L83.6483 130.449L103.037 130.407L122.426 130.365L122.47 128.425L122.515 126.486H123.064H123.613V124.744V123.002H123.059H122.505V118.495V113.989L123.811 113.942L125.116 113.897V112.471V111.046L124.528 110.997L123.94 110.949L123.895 109.335L123.85 107.721L123.18 107.672L122.511 107.624L122.468 103.872L122.426 100.12L120.724 100.075L119.023 100.03L119.022 80.2017L119.022 60.3735L118.686 59.8221C118.263 59.1282 118.018 58.9464 117.094 58.64C116.461 58.4304 115.129 58.3936 108.072 58.3914L99.7924 58.3886L99.1609 57.3276C97.9152 55.235 95.5256 52.6748 93.1352 50.8716C92.0714 50.0694 88.9407 48.1012 88.7282 48.1012C88.6729 48.1012 88.3621 47.9372 88.0373 47.7369C87.7127 47.5364 86.8771 47.1354 86.1807 46.846C85.4843 46.5563 84.6901 46.2216 84.4158 46.1019C84.1415 45.9822 83.8378 45.8843 83.7409 45.8843C83.6441 45.8843 83.4411 45.8168 83.29 45.7343C83.1388 45.6518 82.481 45.436 81.8282 45.2548C81.1753 45.0738 80.4274 44.862 80.1663 44.7842C79.9051 44.7065 79.3887 44.5953 79.0188 44.537C78.5174 44.4582 78.3461 44.3592 78.3461 44.148C78.3461 43.7473 78.6826 43.5244 79.0584 43.6758C79.5468 43.8727 80.3051 43.8474 81.2446 43.6026C82.5671 43.2579 83.3106 42.8061 84.1255 41.8517C84.537 41.3697 84.9918 40.9754 85.136 40.9754C85.9775 40.9754 86.3865 39.9608 85.8021 39.3228C85.5405 39.0373 85.5202 38.8759 85.6416 38.0459C85.8531 36.5993 85.5342 35.0281 84.8794 34.2907C84.7469 34.1414 84.5774 33.6782 84.5027 33.2614C84.3908 32.6359 84.2305 32.3791 83.585 31.791C83.155 31.399 82.652 30.7504 82.4674 30.3496C82.0623 29.4698 81.5259 28.9329 80.514 28.3948C79.5242 27.8683 78.5808 27.8809 77.2738 28.438ZM83.6661 32.6668C83.8106 32.8872 83.8892 33.107 83.8413 33.1552C83.7322 33.2641 83.0944 32.64 83.0944 32.4244C83.0944 32.1322 83.4011 32.2622 83.6661 32.6668ZM83.9726 37.0338C84.1339 37.3916 84.4296 37.7917 84.6298 37.923C84.8306 38.0546 84.9937 38.3208 84.9937 38.5171C84.9937 38.8546 84.9612 38.8641 84.3623 38.7041C83.8131 38.5575 83.6741 38.5779 83.2939 38.8609C82.7704 39.2506 82.667 39.7344 83.0045 40.2164C83.3764 40.7477 83.3099 40.8677 82.6987 40.7686C82.2364 40.6935 82.1447 40.726 82.1447 40.9656C82.1447 41.4289 83.0625 41.5336 83.6051 41.1321C84.174 40.7114 84.1607 40.8615 83.5625 41.6173C83.2873 41.9649 82.6939 42.4145 82.1776 42.6664C80.9708 43.2553 79.09 43.2987 78.1087 42.7602C76.9202 42.1081 76.9175 42.2487 78.1505 40.6075L79.2784 39.1062L79.958 39.3404C81.0881 39.7299 81.9864 39.3985 81.9864 38.5922C81.9864 38.1689 81.7416 37.8886 80.9352 37.3884C80.6528 37.2131 80.6523 37.1942 80.9236 36.9133C81.1115 36.7187 81.5358 36.589 82.1898 36.526C82.7308 36.4741 83.2873 36.4205 83.4264 36.4072C83.5814 36.3925 83.7931 36.6354 83.9726 37.0338ZM79.8176 38.1879C79.5251 38.5782 79.2958 38.5871 79.2958 38.208C79.2958 37.9901 79.5232 37.8436 79.8967 37.8208C80.0403 37.8121 80.0165 37.9222 79.8176 38.1879ZM81.3533 38.3626C81.3533 38.4061 81.3177 38.4417 81.2742 38.4417C81.2307 38.4417 81.1951 38.4061 81.1951 38.3626C81.1951 38.319 81.2307 38.2834 81.2742 38.2834C81.3177 38.2834 81.3533 38.319 81.3533 38.3626ZM81.3533 38.6793C81.3533 38.7228 81.3177 38.7584 81.2742 38.7584C81.2307 38.7584 81.1951 38.7228 81.1951 38.6793C81.1951 38.6357 81.2307 38.6001 81.2742 38.6001C81.3177 38.6001 81.3533 38.6357 81.3533 38.6793ZM83.849 39.5502C83.7403 39.7244 83.5972 39.8669 83.531 39.8669C83.3313 39.8669 83.3964 39.4242 83.6088 39.3383C83.9881 39.1852 84.0453 39.2357 83.849 39.5502ZM85.415 40.2232C85.3711 40.3322 85.3352 40.243 85.3352 40.0253C85.3352 39.8075 85.3711 39.7185 85.415 39.8273C85.459 39.9363 85.459 40.1144 85.415 40.2232ZM80.0871 41.4208C80.0871 41.7247 81.0344 42.42 81.5661 42.5063C82.0771 42.5893 82.1447 42.5618 82.1447 42.2701C82.1447 42.0188 82.0138 41.9152 81.5965 41.837C81.2948 41.7803 80.9656 41.6346 80.8647 41.513C80.6683 41.2762 80.0871 41.2074 80.0871 41.4208ZM76.5478 43.4298C76.708 43.8474 76.4994 44.1085 76.0711 44.0267C75.6874 43.9532 75.6809 43.934 75.9185 43.5711C76.2032 43.1366 76.4169 43.0884 76.5478 43.4298ZM75.4001 44.6436C76.1934 44.7451 76.9327 44.8973 77.0429 44.9818C77.1844 45.0903 77.2124 45.3693 77.1382 45.9297C77.0088 46.9044 77.2724 46.8385 77.7407 45.7793C78.0406 45.1008 78.065 45.0845 78.6329 45.1787C79.6433 45.3464 79.6569 45.3587 79.5373 45.9974C79.3067 47.2273 78.1556 48.6821 76.958 49.2569C76.1133 49.6623 74.7059 49.8882 73.6879 49.7818C71.3708 49.5395 69.0244 47.493 68.6293 45.3697L68.5187 44.7758H69.5603C70.5409 44.7758 70.5922 44.7937 70.4379 45.0821C70.3478 45.2506 70.2741 45.5 70.2741 45.6363C70.2741 46.1019 70.6691 45.8846 71.1196 45.1714L71.5694 44.4591H72.7634C73.4203 44.4591 74.6067 44.5421 75.4001 44.6436ZM67.991 45.3697C68.0861 45.7967 68.3848 46.5663 68.7273 47.2669C69.0835 47.9958 70.5235 49.2371 71.6194 49.7601C73.4706 50.6436 75.2836 50.6447 77.1456 49.7634C78.7063 49.0247 79.6796 47.8513 80.1031 46.1981L80.297 45.4417L81.1022 45.6756C85.2855 46.8909 89.5713 48.9866 92.696 51.3448L94.0491 52.3658L93.2013 52.7411C91.1822 53.6347 89.0371 56.1332 88.3103 58.4377C88.1118 59.067 87.9273 59.6096 87.9002 59.6435C87.8732 59.6776 87.1902 59.4163 86.3827 59.063C85.0358 58.4738 82.8193 57.759 82.3426 57.7602C81.9445 57.7612 82.1588 58.257 82.646 58.4619C83.1062 58.6556 83.1199 58.6814 82.8139 58.7786C82.6306 58.8367 82.2569 59.1395 81.9833 59.4513L81.4857 60.0183L81.0248 59.4589C80.1573 58.4058 80.0474 58.3941 71.0997 58.3941H63.1182L62.8007 57.9903C62.511 57.622 62.3899 57.5894 61.4156 57.6179C60.2532 57.6518 59.9873 57.5663 59.9842 57.1575C59.9805 56.6752 59.3615 54.8956 58.7235 53.5337C58.0198 52.0311 56.8978 50.5362 55.6166 49.3935L54.7533 48.6238L56.41 47.9636C57.8512 47.3893 59.5413 46.8464 62.5978 45.9761C63.9015 45.6048 66.8341 44.9996 67.5408 44.956C67.8052 44.9397 67.9183 45.0438 67.991 45.3697ZM55.3829 49.9535C56.266 50.7625 57.5432 52.4105 57.9977 53.3268C58.5277 54.3959 59.1817 56.2193 59.287 56.9208C59.3814 57.5518 59.3607 57.6256 59.0961 57.5974C58.5817 57.5428 58.4397 57.5922 57.9644 57.9925L57.501 58.3826L51.8191 58.428C46.3043 58.472 46.1163 58.4837 45.4249 58.8269C45.0197 59.028 44.5919 59.3944 44.4324 59.6768L44.1522 60.173L43.7979 59.6399C43.603 59.3466 43.1396 58.9604 42.7681 58.7814L42.0924 58.4562L42.8837 57.329C44.3266 55.2733 47.0056 52.8869 49.7137 51.2452C51.7054 50.0379 54.0452 48.9212 54.2989 49.057C54.4385 49.1318 54.9263 49.5351 55.3829 49.9535ZM95.9237 54.1978C96.9776 55.299 98.4749 57.2074 98.8418 57.9172L99.0953 58.4077L97.8744 58.3613L96.6535 58.3149L96.0811 57.2065C95.4346 55.9544 94.971 55.2605 94.0269 54.1324C93.3482 53.3213 93.3571 53.2375 94.1464 53.0157C94.6386 52.8773 94.6964 52.9156 95.9237 54.1978ZM93.5885 54.4749C94.4734 55.5178 95.9146 57.9015 95.9146 58.3224C95.9146 58.3618 94.3477 58.3941 92.4326 58.3941C89.6557 58.3941 88.9505 58.3518 88.9505 58.1853C88.9505 57.878 90.0452 56.1504 90.7411 55.3591C91.3269 54.6933 92.5608 53.6556 92.7765 53.6475C92.8351 53.6453 93.2004 54.0177 93.5885 54.4749ZM58.72 58.3149C58.72 58.3585 58.6844 58.3941 58.6409 58.3941C58.5974 58.3941 58.5617 58.3585 58.5617 58.3149C58.5617 58.2714 58.5974 58.2358 58.6409 58.2358C58.6844 58.2358 58.72 58.2714 58.72 58.3149ZM62.3076 58.3414C62.2495 58.3993 62.1546 58.3993 62.0965 58.3414C62.0386 58.2833 62.0861 58.2358 62.2021 58.2358C62.3181 58.2358 62.3656 58.2833 62.3076 58.3414ZM42.0937 59.129C42.3724 59.1848 42.8444 59.4605 43.1423 59.7415L43.6839 60.2525V63.1238V65.995H40.1042H36.5245L35.9164 65.3681C34.9408 64.3624 34.1486 64.0235 32.7629 64.0193C31.7384 64.0161 31.4595 64.0801 30.7259 64.4867C30.2584 64.7456 29.6979 65.1911 29.4805 65.4763L29.0851 65.995H18.1036H7.12237V63.5854C7.12237 60.8022 7.30613 60.0641 8.12251 59.5699C8.39949 59.4022 8.76843 59.2187 8.94254 59.1621C9.35468 59.028 41.429 58.996 42.0937 59.129ZM58.4464 59.6609C58.5206 59.9658 58.6363 60.5143 58.7034 60.8798C58.8452 61.6511 59.1372 62.0658 59.496 62.0052C59.635 61.9817 59.9207 62.0829 60.1307 62.2304C60.3873 62.4102 60.5951 62.4517 60.7638 62.3569C60.9397 62.2579 61.1173 62.3114 61.3562 62.5353C61.6348 62.7965 61.7581 62.8226 62.0289 62.6775C62.2112 62.58 62.3603 62.4313 62.3603 62.3474C62.3603 62.2633 62.4656 62.1946 62.5941 62.1946C63.0892 62.1946 63.3382 61.4801 63.2832 60.2177L63.2309 59.0161L71.4737 59.0614L79.7165 59.1067L80.268 59.5278C81.0434 60.1197 81.1951 60.7854 81.1951 63.5961V65.9904L71.105 66.0322C65.5556 66.0554 57.3114 66.0386 52.7847 65.995L44.5544 65.9158L44.5109 63.4234C44.4721 61.2044 44.5014 60.8638 44.7787 60.3202C45.1128 59.6647 45.6112 59.2595 46.2278 59.142C46.4391 59.1016 49.2444 59.0772 52.4617 59.0877L58.3114 59.1067L58.4464 59.6609ZM59.5 59.6261C59.7175 60.2855 59.6801 61.0958 59.4323 61.0964C59.3452 61.0966 59.2284 60.7387 59.1727 60.301C59.117 59.8633 59.0302 59.3978 58.9799 59.2665C58.9269 59.1284 58.9758 59.0275 59.0953 59.0275C59.2092 59.0275 59.3913 59.2969 59.5 59.6261ZM60.66 59.9607C60.7065 60.4741 60.688 61.1331 60.619 61.4255L60.4935 61.957L60.474 61.482C60.4633 61.2207 60.3612 60.5616 60.2472 60.0172C60.0574 59.1115 60.0625 59.0275 60.3077 59.0275C60.5193 59.0275 60.593 59.2231 60.66 59.9607ZM61.7277 60.4557C61.9491 62.0014 61.8665 62.5254 61.5959 61.2926C61.3202 60.0373 61.2231 59.0275 61.3781 59.0275C61.4579 59.0275 61.6152 59.6703 61.7277 60.4557ZM62.7355 59.3838C62.8732 59.898 62.8523 60.8141 62.6971 61.0587C62.5511 61.2893 62.3651 60.4481 62.3621 59.5422C62.36 58.9529 62.5935 58.854 62.7355 59.3838ZM86.0342 59.5626C86.4631 59.7773 87.348 60.2144 88.0009 60.5339C89.9595 61.4921 92.0655 63.1363 93.7384 65.0132C94.0649 65.3795 94.3319 65.7502 94.3319 65.8371C94.3319 65.9394 92.1535 65.995 88.1493 65.995H81.9668L82.0162 63.101C82.0733 59.7477 82.0847 59.7213 83.7275 59.1225C84.1662 58.9626 85.2485 59.1691 86.0342 59.5626ZM99.756 59.6169C100.372 60.6726 101.613 64.7125 101.613 65.6636C101.613 65.9988 101.587 66.0012 98.4206 65.9588L95.2287 65.9158L94.2659 64.7497C93.1426 63.3893 91.6053 62.0407 89.8084 60.8392C88.6121 60.0396 88.5341 59.9533 88.6001 59.5038L88.6706 59.0234L94.0644 59.0651L99.4583 59.1067L99.756 59.6169ZM117.539 59.4598C118.418 60.0874 118.548 60.599 118.548 63.4457V65.995H110.433H102.318L102.131 65.1637C102.029 64.7065 101.898 64.0473 101.841 63.6989C101.723 62.9871 100.891 60.4422 100.562 59.7876C100.443 59.5523 100.346 59.2828 100.346 59.1884C100.346 59.0668 102.779 59.0299 108.695 59.0617C117.044 59.1067 117.044 59.1067 117.539 59.4598ZM10.2087 60.6557C9.35389 61.1363 8.97831 61.8861 9.0872 62.894C9.18834 63.8311 9.70938 64.4516 10.6668 64.7756C11.2244 64.9642 11.4124 64.9632 11.992 64.7686C12.8113 64.4934 13.4493 63.7165 13.565 62.8536C13.6837 61.968 13.0354 60.8899 12.1775 60.5464C11.3383 60.2106 10.9631 60.2313 10.2087 60.6557ZM47.6097 60.5756C46.5463 61.0717 46.061 62.1384 46.3725 63.2953C46.6686 64.3953 48.0819 65.202 49.1031 64.8536C50.2721 64.4547 50.7922 63.7703 50.8007 62.6194C50.805 62.0318 50.7096 61.7298 50.3846 61.3037C49.619 60.2994 48.7118 60.0614 47.6097 60.5756ZM84.9066 60.5171C83.1377 61.288 83.0334 63.8205 84.7374 64.6296C85.4531 64.9692 86.021 64.9539 86.8069 64.5732C87.6193 64.1797 88.0009 63.5475 88.0009 62.595C88.0009 61.7205 87.4908 60.939 86.6633 60.5461C86.0259 60.2435 85.5524 60.2358 84.9066 60.5171ZM12.1888 61.1914C13.3198 61.8598 13.2316 63.4761 12.0289 64.1203C11.0959 64.6201 10.1353 64.2606 9.73613 63.2623C9.52293 62.7295 9.5223 62.5976 9.73027 62.0997C10.1909 60.9968 11.2177 60.6175 12.1888 61.1914ZM48.2774 61.8383C48.2808 62.739 48.2884 62.7539 48.9893 63.2239C49.3789 63.4851 49.6979 63.7559 49.698 63.8258C49.6987 64.0603 48.6145 64.4083 48.165 64.3181C47.5865 64.2018 47.2866 63.9599 47.0453 63.4144C46.6571 62.5366 46.8839 61.6516 47.6132 61.1989C47.846 61.0544 48.0898 60.9342 48.1552 60.932C48.2205 60.9297 48.2755 61.3376 48.2774 61.8383ZM34.0487 64.6558C34.8931 64.9537 35.8642 65.8546 36.2603 66.7076C36.6193 67.4802 36.653 68.953 36.3298 69.7272C36.2022 70.0325 35.7079 70.6913 35.2312 71.1913C34.315 72.1524 34.0291 72.689 34.0291 73.4479V73.9126H32.7629H31.4967V73.4479C31.4967 72.7424 31.2212 72.1532 30.5847 71.4978L30.008 70.9039H30.6186C31.2193 70.9039 31.2245 70.8987 30.9428 70.5872C30.7497 70.3738 30.4553 70.2705 30.0396 70.2705C29.4855 70.2705 29.3997 70.2148 29.1937 69.7214C28.9324 69.0957 28.8902 67.6355 29.1164 67.0406C29.262 66.6574 29.3304 66.6386 30.7387 66.5949C31.9198 66.5583 32.209 66.5025 32.209 66.3117C32.209 66.125 31.9465 66.0644 30.9823 66.028C30.3078 66.0025 29.7557 65.9312 29.7557 65.8696C29.7557 65.6626 30.8646 64.8698 31.4606 64.6508C32.2556 64.3584 33.2112 64.3604 34.0487 64.6558ZM71.4236 66.6109L81.199 66.6284L81.1576 72.2895L81.1159 77.9506H79.6123H78.1087L78.0663 74.1106L78.0239 70.2705H62.8493C48.6653 70.2705 47.6678 70.2883 47.5705 70.5419C47.4493 70.858 47.4727 79.3243 47.5968 79.9696L47.6803 80.4051H58.265H68.8496V82.3042V84.2033L58.2056 84.244L47.5616 84.2847L47.5197 89.1041C47.4966 91.7548 47.535 93.9809 47.6052 94.0511C47.7095 94.1554 57.6219 94.2029 75.4519 94.1844L78.0182 94.1817L78.0634 92.6378L78.1087 91.0938H79.6123H81.1159L81.1568 100.085L81.1978 109.076L80.6487 110.093C80.1131 111.085 79.7432 112.269 79.549 113.611C79.3991 114.648 78.9313 115.265 77.4356 116.399C76.6741 116.976 75.9022 117.575 75.7203 117.731C75.2716 118.114 74.966 118.944 75.0769 119.476C75.5494 121.745 75.5527 121.837 75.189 122.589C74.1248 124.788 70.3176 126.821 66.8712 127.029C65.1001 127.137 64.2611 127.028 61.9647 126.396C60.7442 126.061 60.0196 125.959 58.7992 125.954C57.3755 125.947 57.137 125.989 56.425 126.372C55.9898 126.606 54.9214 127.479 54.0509 128.311L52.4682 129.825L49.2235 129.778C46.0895 129.733 45.9607 129.719 45.4466 129.352C44.4052 128.609 44.4753 130.927 44.4753 97.2762V66.6314L52.1912 66.5904C56.435 66.5678 60.2988 66.5592 60.7776 66.5713C61.2564 66.5835 66.047 66.6012 71.4236 66.6109ZM28.5764 68.014C28.5721 68.7762 28.6296 69.595 28.7041 69.8338L28.8398 70.268L19.5242 70.3089L10.2087 70.3497L10.167 75.3774L10.1252 80.4051H25.384C39.152 80.4051 40.6521 80.3805 40.7389 80.1546C40.7917 80.0168 40.8349 77.822 40.8349 75.2773C40.8349 71.8898 40.7841 70.5997 40.645 70.4606C40.5186 70.334 39.8251 70.2705 38.5703 70.2705H36.6854L36.8214 69.8351C36.8961 69.5956 36.9537 68.7747 36.9493 68.011L36.9414 66.6224L40.3522 66.665L43.763 66.7076V97.3488C43.763 114.201 43.7091 128.183 43.6431 128.418C43.5771 128.654 43.2623 129.046 42.9433 129.289L42.3634 129.732L33.6098 129.776L24.8563 129.821L24.8132 126.926L24.77 124.031L24.0182 123.983L23.2664 123.935L23.2682 122.637C23.2691 121.923 23.3141 121.072 23.368 120.745C23.4639 120.165 23.4815 120.151 24.1577 120.151H24.8492V118.999V117.848L26.0758 117.655C29.3812 117.136 31.8168 114.751 32.3148 111.545C33.004 107.11 29.6577 103.208 25.1657 103.208C22.4706 103.208 20.1285 104.55 18.7931 106.86C17.5223 109.058 17.6013 112.152 18.9838 114.332L19.4609 115.084H13.2916H7.12237V90.8563V66.6284H17.8533H28.5843L28.5764 68.014ZM95.2206 67.0639C95.6679 67.7306 96.3906 69.2865 96.4944 69.8061L96.5873 70.2705H90.7905C87.6022 70.2705 84.9791 70.2884 84.9614 70.3101C84.9435 70.3318 84.8902 72.0599 84.8427 74.1502L84.7563 77.9506H83.3318H81.9073L81.8665 72.4875C81.8442 69.4827 81.8597 66.9353 81.9011 66.8264C81.9597 66.6725 83.4174 66.6284 88.4526 66.6284H94.9286L95.2206 67.0639ZM101.718 66.8264C101.786 66.9353 101.87 67.7567 101.904 68.6517L101.965 70.2792L99.6376 70.2352L97.31 70.1914L96.7956 68.8952C96.5126 68.1825 96.1631 67.4189 96.0188 67.1987C95.8744 66.9782 95.7564 66.7599 95.7564 66.7131C95.7564 66.6666 97.0697 66.6284 98.6751 66.6284C100.838 66.6284 101.626 66.6797 101.718 66.8264ZM118.548 69.2287V71.829L117.654 73.3774C116.309 75.7079 116.119 76.3595 116.223 78.2673C116.271 79.1383 116.389 80.0589 116.486 80.3132C116.746 80.9994 116.719 83.5365 116.442 84.4522C116.213 85.2055 115.551 86.8446 114.883 88.31C114.057 90.1225 113.885 90.9917 113.908 93.2316C113.92 94.4074 114.043 96.1123 114.181 97.0203C114.32 97.9285 114.433 98.9795 114.433 99.356V100.041H106.756H99.0801V104.079V108.117H99.7924H100.505V109.779V111.442H101.138H101.771V112.471V113.501H100.425H99.0801V118.489V123.477H99.6457C100.089 123.477 100.2 123.534 100.16 123.741C100.132 123.886 99.8953 124.074 99.6341 124.158C99.3729 124.243 98.5084 124.76 97.7131 125.307C95.1386 127.079 94.3659 127.317 92.3492 126.959C90.2166 126.579 89.8807 126.586 88.8763 127.031C88.363 127.258 87.2761 127.986 86.4609 128.649L84.9788 129.854L84.1168 129.765C83.2476 129.675 82.434 129.245 82.161 128.731C82.0812 128.581 81.9951 120.316 81.9635 109.779L81.9073 91.0938L91.0873 91.0645C96.1362 91.0486 100.642 91.0307 101.1 91.025L101.934 91.0147L101.892 85.987L101.85 80.9593L100.676 80.8801C99.7134 80.8152 99.5458 80.7658 99.7413 80.6046C99.922 80.4554 101.844 80.3983 107.721 80.3671L115.462 80.3259V75.3378V70.3497L108.933 70.3084L102.404 70.267V68.4477V66.6284H110.476H118.548V69.2287ZM29.8578 71.4856C30.8437 72.2936 31.0219 72.7139 31.0219 74.2293C31.0219 75.6977 31.2599 76.3156 31.9663 76.6811C32.557 76.9867 32.9728 76.9847 33.5746 76.6733C34.2281 76.3351 34.5039 75.5855 34.5039 74.1473C34.5039 72.7703 34.6739 72.3537 35.5848 71.4978L36.2168 70.9039H38.2093H40.2018V75.417V79.93H26.5902H12.9785V75.417V70.9039H21.0636H29.1484L29.8578 71.4856ZM77.5182 74.4273L77.4756 77.9506L73.2022 78.0298L68.9288 78.109L68.8813 79.0195L68.8338 79.93H59.5826H50.3314V75.417V70.9039H63.9461H77.5608L77.5182 74.4273ZM96.8388 71.1811C97.0704 71.6265 97.2158 73.2404 97.1003 74.081L96.9938 74.8563L93.8051 74.8992C90.9139 74.938 90.6116 74.9677 90.5634 75.219C90.514 75.4756 90.7466 75.4962 93.6872 75.4962C95.4346 75.4962 96.864 75.5495 96.8636 75.6149C96.8625 75.852 96.2315 76.763 96.0685 76.763C95.9764 76.763 95.5237 77.048 95.0625 77.3964L94.2239 78.0298H91.0649C88.819 78.0298 87.851 77.9748 87.716 77.8398C87.5106 77.6342 87.4313 71.21 87.6316 71.0096C87.6896 70.9514 89.7527 70.9039 92.2159 70.9039C96.3212 70.9039 96.707 70.9271 96.8388 71.1811ZM101.609 71.4186C101.607 71.7017 101.531 72.2183 101.441 72.5666C101.352 72.915 101.191 73.5563 101.086 73.9918L100.893 74.7836L99.2747 74.8287L97.6557 74.8738L97.6534 73.2452C97.6523 72.3494 97.6083 71.4563 97.5559 71.2602C97.4605 70.9039 97.4608 70.9039 99.5364 70.9039H101.613L101.609 71.4186ZM114.908 75.417V79.93H107.449H99.9902L100.089 79.4945C100.532 77.5391 100.659 77.0626 100.925 76.3671L101.226 75.5753L106.445 75.4962C110.943 75.4279 111.663 75.3842 111.663 75.1794C111.663 74.9741 110.97 74.9362 106.541 74.9001L101.418 74.8583L101.526 74.5042C101.855 73.4168 102.246 71.7674 102.246 71.4645C102.246 71.2723 102.293 71.0675 102.351 71.0096C102.409 70.9514 105.258 70.9039 108.682 70.9039H114.908V75.417ZM19.0326 73.398C16.4706 73.4371 15.9858 73.4816 15.9858 73.6786C15.9858 73.8791 16.5752 73.9126 20.1009 73.9126C23.6532 73.9126 24.2161 73.8802 24.2161 73.6751C24.2161 73.5445 24.1271 73.4312 24.0182 73.4236C23.2044 73.3662 21.6489 73.3582 19.0326 73.398ZM57.0581 74.2539C56.5575 74.5278 56.3459 74.8822 56.3459 75.4472C56.3459 76.5266 57.5537 76.9942 58.3315 76.2159C58.8848 75.6624 58.8471 74.998 58.233 74.481C57.6969 74.0295 57.5277 73.9969 57.0581 74.2539ZM62.6623 74.5362C62.2437 74.9551 62.1805 75.1142 62.2632 75.5421C62.5552 77.0543 64.5762 76.9156 64.5762 75.3834C64.5762 74.6852 64.285 74.3196 63.5909 74.1464C63.2397 74.0586 63.0674 74.131 62.6623 74.5362ZM68.9288 74.2539C68.1282 74.6919 67.959 75.674 68.5828 76.2604C69.0438 76.6936 69.6358 76.6996 70.1736 76.2764C70.779 75.8 70.7488 75.0241 70.1036 74.481C69.5676 74.0295 69.3984 73.9969 68.9288 74.2539ZM57.9269 74.9399C58.2311 75.3064 57.9956 75.9712 57.5616 75.9712C56.8698 75.9712 56.5801 75.3178 57.0977 74.9248C57.4617 74.6483 57.6885 74.6525 57.9269 74.9399ZM63.8527 74.9532C64.1626 75.2634 64.1696 75.559 63.8727 75.8056C63.5083 76.1082 62.9221 75.9465 62.8625 75.527C62.7633 74.8266 63.373 74.4734 63.8527 74.9532ZM69.7975 74.9399C70.1127 75.3197 69.8654 75.9712 69.4061 75.9712C68.8485 75.9712 68.5772 75.4097 68.9406 75.008C69.2703 74.6436 69.5343 74.6225 69.7975 74.9399ZM100.505 75.6284C100.505 75.7011 100.356 76.2127 100.175 76.7652C99.9937 77.3177 99.7878 78.0599 99.7175 78.4144C99.5953 79.0307 99.5888 79.0364 99.5724 78.5444C99.5551 78.0347 99.5474 78.0298 98.7636 78.0298C97.9912 78.0298 97.9722 78.0185 97.9722 77.5584C97.9722 77.2303 97.8519 77.0081 97.5765 76.8276C97.133 76.5368 97.1172 76.476 97.3352 75.9023C97.486 75.5055 97.5244 75.4962 98.997 75.4962C99.8262 75.4962 100.505 75.5557 100.505 75.6284ZM16.0158 77.0401C16.0655 77.2977 16.4625 77.3172 21.6837 77.3172C26.9048 77.3172 27.3018 77.2977 27.3515 77.0401C27.4015 76.7802 27.0471 76.763 21.6837 76.763C16.3202 76.763 15.9658 76.7802 16.0158 77.0401ZM97.2487 77.4499C97.4486 77.7709 97.1593 78.0235 96.5873 78.0274C96.1585 78.0303 96.1492 77.9645 96.5082 77.4711C96.8154 77.049 96.9957 77.0437 97.2487 77.4499ZM71.0284 82.9783L71.0705 87.3726H70.3558H69.641V82.9297V78.4866L70.3137 78.5354L70.9863 78.584L71.0284 82.9783ZM94.8067 78.6268C94.8067 78.6938 94.1301 79.4228 93.3031 80.2467C92.1262 81.4193 91.7995 81.8401 91.7995 82.1834C91.7995 82.5504 91.8668 82.622 92.212 82.622C92.4388 82.622 92.9017 82.4022 93.2407 82.1336C93.8406 81.6584 94.0639 81.5951 93.6534 82.0169C93.2987 82.381 92.7491 83.3618 92.7491 83.6304C92.7491 83.9256 92.6885 83.9081 93.9234 83.9686C94.8542 84.0141 94.8659 84.0092 95.704 83.216C96.168 82.777 96.5477 82.4548 96.5477 82.4999C96.5477 82.5452 96.4406 82.8863 96.3095 83.2578C96.0656 83.9492 96.1804 84.3639 96.6152 84.3639C96.8508 84.3639 97.6064 83.5606 98.291 82.5824C98.5805 82.1686 98.8408 81.8302 98.8696 81.8302C98.8983 81.8302 98.9219 83.1134 98.9219 84.6815V87.5327L85.3498 87.4923L71.7777 87.4517L71.7356 82.9783L71.6937 78.5048H83.2501C89.6063 78.5048 94.8067 78.5596 94.8067 78.6268ZM98.9219 79.6735C98.9219 80.8203 98.9084 80.8592 98.1976 81.7717C97.7992 82.2828 97.4129 82.8074 97.339 82.9374C97.265 83.0673 97.168 83.137 97.1232 83.0921C97.0784 83.0473 97.2209 82.5848 97.4399 82.0641C98.2367 80.1704 97.9129 80.139 96.1424 81.9389C94.7486 83.3556 94.5562 83.4298 95.5797 82.1553C96.3337 81.2163 96.8643 80.4252 96.8643 80.2397C96.8643 79.8779 96.4127 80.1484 95.7288 80.9197C94.0666 82.7946 93.5508 83.3264 93.5457 83.1702C93.5429 83.0798 94.1103 82.3517 94.8067 81.5523C95.9969 80.1862 96.3167 79.6133 95.889 79.6133C95.7879 79.6133 95.034 80.118 94.2137 80.7348C93.3935 81.3515 92.6969 81.8307 92.6656 81.7995C92.6344 81.7682 93.3283 81.0141 94.2078 80.1237L95.8067 78.5048H97.3643H98.9219V79.6735ZM74.3112 81.1951C74.2568 81.2831 74.2563 81.4264 74.3101 81.5135C74.3729 81.6152 76.8743 81.6719 81.2951 81.6719C87.7692 81.6719 88.1791 81.6553 88.1291 81.3948C88.0794 81.1367 87.6057 81.1148 81.2429 81.0763C76.7662 81.0494 74.3759 81.0903 74.3112 81.1951ZM10.1296 89.1936V94.1817H25.3862C39.1522 94.1817 40.6521 94.1572 40.7389 93.9312C40.8636 93.6059 40.8603 85.0288 40.7352 84.5618L40.6398 84.2055H25.3846H10.1296V89.1936ZM74.2705 84.7202C74.3209 84.8714 75.4587 84.9279 79.0932 84.9599C83.2218 84.9963 83.8623 84.9702 83.9421 84.762C84.023 84.551 83.4438 84.5222 79.1193 84.5222C75.2579 84.5222 74.2188 84.5647 74.2705 84.7202ZM40.1648 89.2332L40.1227 93.6275L26.5506 93.668L12.9785 93.7084V89.2737V84.8389H26.5927H40.2069L40.1648 89.2332ZM68.8496 86.3116C68.8496 87.2459 68.9191 87.8538 69.0395 87.9743C69.1499 88.0847 69.6783 88.1643 70.2996 88.1643H71.3697L71.4154 89.5499L71.4612 90.9355L74.4684 91.0147L77.4756 91.0938L77.5215 92.4002L77.5676 93.7067H63.9494H50.3314V89.2728V84.8389H59.5905H68.8496V86.3116ZM21.3845 86.164C21.1772 86.4139 21.2813 92.259 21.4969 92.4747C21.5675 92.5453 23.7572 92.5841 26.3631 92.561L31.101 92.519L31.146 89.5895C31.1708 87.9783 31.1517 86.4997 31.1034 86.3037L31.0159 85.9474H26.2899C22.4852 85.9474 21.5292 85.9897 21.3845 86.164ZM25.6475 87.0163C25.5582 87.1686 25.2798 87.5292 25.0291 87.8172L24.5733 88.3412L23.8011 87.681C23.3764 87.3179 22.9613 86.9574 22.8786 86.8799C22.7902 86.7971 23.3625 86.7392 24.2691 86.7392C25.6929 86.7392 25.7976 86.7602 25.6475 87.0163ZM29.3418 87.0825C29.0906 87.2712 28.6666 87.6291 28.3993 87.8776L27.9134 88.3295L27.4496 87.8085C26.4227 86.6549 26.3658 86.7392 28.1748 86.7392H29.7984L29.3418 87.0825ZM26.909 88.0324L27.439 88.6923L26.9018 89.1409C26.6065 89.3876 26.3238 89.5895 26.2736 89.5895C26.2235 89.5895 25.9408 89.3876 25.6455 89.1409L25.1083 88.6923L25.6383 88.0324C25.9299 87.6695 26.2157 87.3726 26.2736 87.3726C26.3316 87.3726 26.6174 87.6695 26.909 88.0324ZM23.5342 88.2201L24.1977 88.7479L23.6952 89.3667C23.4188 89.707 23.0975 90.0845 22.9812 90.2055C22.8649 90.3266 22.6596 90.5938 22.5251 90.7993C22.3905 91.0049 22.2174 91.173 22.1403 91.173C22.0632 91.173 22.0002 90.5317 22.0002 89.7478C22.0002 88.5338 22.0471 88.2758 22.3168 88.006C22.728 87.5946 22.7536 87.5992 23.5342 88.2201ZM30.3006 88.5163C30.4732 88.7627 30.5471 89.2432 30.5471 90.1192C30.5471 91.5792 30.5737 91.5838 29.1775 89.8766L28.2697 88.7664L28.6566 88.4688C29.1994 88.0516 29.9914 88.0744 30.3006 88.5163ZM53.1804 89.1936C53.1804 89.4003 53.9015 89.4311 58.72 89.4311C63.5385 89.4311 64.2596 89.4003 64.2596 89.1936C64.2596 88.987 63.5385 88.9561 58.72 88.9561C53.9015 88.9561 53.1804 88.987 53.1804 89.1936ZM25.2722 89.6329C26.2852 90.4481 26.1784 90.4356 26.9693 89.8315C27.3716 89.5243 27.7537 89.2733 27.8183 89.2737C27.8827 89.2742 28.4544 89.8799 29.0886 90.6197L30.2416 91.9648H26.267H22.2922L23.0564 91.0588C24.8064 88.9833 24.6168 89.1054 25.2722 89.6329ZM47.5786 98.2327C47.5257 98.3704 47.4825 100.571 47.4825 103.122C47.4825 106.891 47.5238 107.796 47.7027 107.944C47.8652 108.079 51.235 108.126 60.5625 108.122L73.2022 108.118L72.288 108.632C71.0887 109.306 70.3567 109.906 69.8094 110.661C69.452 111.155 69.3838 111.379 69.467 111.786C69.563 112.255 69.6872 112.341 71.0587 112.898C71.8769 113.229 72.6034 113.501 72.6732 113.501C72.7429 113.501 73.083 113.193 73.4291 112.818C73.822 112.391 74.6404 111.83 75.6086 111.322C77.547 110.306 78.1454 109.864 78.6991 109.039C79.0685 108.489 79.1375 108.22 79.1375 107.334C79.1375 106.116 78.7907 104.64 78.3289 103.892C78.0467 103.436 78.0098 103.131 78.0308 101.429C78.0438 100.361 78.049 99.1481 78.0421 98.7343L78.0296 97.9822H62.8521C49.1583 97.9822 47.6653 98.0067 47.5786 98.2327ZM77.5547 100.75V102.884L76.8196 102.418C75.1308 101.346 73.0317 101.161 71.4775 101.945C70.0962 102.643 68.6499 104.403 68.814 105.187C68.9131 105.66 69.0242 105.735 70.5908 106.391L72.0327 106.996L72.709 106.289C73.288 105.685 73.476 105.583 74.0157 105.583C75.1733 105.583 75.6143 106.392 74.9 107.206C74.6722 107.466 73.8794 107.483 62.4941 107.483H50.3314V103.049V98.6156H63.9431H77.5547V100.75ZM122.03 104.079V107.642H120.843C119.893 107.642 119.656 107.689 119.656 107.879C119.656 108.077 119.972 108.117 121.555 108.117H123.454V109.542V110.967H121.802C120.323 110.967 119.739 111.103 120.019 111.384C120.063 111.427 121.138 111.462 122.409 111.461L124.721 111.459V112.48V113.501H121.634C118.157 113.501 117.79 113.64 119.616 114.265C120.204 114.467 120.987 114.739 121.357 114.871L122.03 115.11V119.051V122.991L120.367 123.036C117.851 123.104 118.214 123.39 120.883 123.442L123.138 123.486V124.743V126L121.37 126.045C120.294 126.072 119.581 126.156 119.546 126.259C119.515 126.352 120.062 126.686 120.76 127L122.03 127.571V128.77V129.969H110.792H99.555V128.239V126.509L102.197 126.494C103.65 126.485 104.868 126.449 104.903 126.413C104.939 126.377 104.921 126.272 104.864 126.179C104.798 126.074 103.988 126.011 102.702 126.011H100.645L100.693 125.338C100.742 124.667 100.747 124.662 102.007 124.031C102.703 123.683 103.255 123.326 103.234 123.239C103.213 123.148 102.421 123.062 101.376 123.036L99.555 122.992V118.488V113.983L102.272 113.94C104.225 113.909 105.007 113.843 105.053 113.705C105.099 113.567 104.727 113.501 103.721 113.467L102.325 113.422V112.471V111.521L105.174 111.48C108.127 111.437 108.506 111.395 108.34 111.127C108.278 111.027 106.877 110.967 104.61 110.967H100.979V109.542V108.117H103.354C105.358 108.117 105.728 108.08 105.728 107.879C105.728 107.676 105.279 107.642 102.641 107.642H99.555V104.079V100.516H110.792H122.03V104.079ZM53.1804 101.387C53.1804 101.517 53.2695 101.627 53.3782 101.63C53.591 101.635 69.4827 101.633 69.6806 101.628C69.7459 101.626 69.7993 101.517 69.7993 101.387C69.7993 101.179 68.7705 101.149 61.4898 101.149C54.2092 101.149 53.1804 101.179 53.1804 101.387ZM75.7741 102.337C76.2311 102.545 76.6051 102.748 76.6051 102.788C76.6051 102.828 76.2311 102.714 75.7741 102.534C73.888 101.791 71.8046 102.228 70.1734 103.708C69.6033 104.225 69.5058 104.278 69.7792 103.92C71.2715 101.969 73.6101 101.352 75.7741 102.337ZM77.0008 103.049C77.0546 103.137 77.063 103.208 77.0195 103.208C76.9759 103.208 76.8963 103.137 76.8425 103.049C76.7887 102.962 76.7803 102.891 76.8238 102.891C76.8673 102.891 76.947 102.962 77.0008 103.049ZM102.634 103.378C102.575 103.474 102.592 103.618 102.673 103.699C102.759 103.785 105.201 103.828 108.587 103.804C113.589 103.768 114.354 103.731 114.354 103.524C114.354 103.318 113.585 103.281 108.548 103.245C104.456 103.216 102.71 103.255 102.634 103.378ZM28.0528 104.271C31.0159 105.666 32.557 108.969 31.7289 112.149C31.3823 113.48 30.7652 114.523 29.8019 115.403C27.0791 117.893 23.1393 117.888 20.4998 115.39C18.8912 113.868 18.2887 112.364 18.3871 110.119C18.4403 108.909 18.5321 108.497 18.9457 107.613C19.7568 105.88 20.8581 104.854 22.7745 104.047C23.5523 103.719 23.8679 103.679 25.324 103.721C26.8058 103.764 27.1016 103.823 28.0528 104.271ZM53.1123 104.615C52.8493 105.041 53.5936 105.097 59.0446 105.063C64.2422 105.031 64.6549 105.009 64.7042 104.752C64.7544 104.492 64.3973 104.475 58.9783 104.475C55.7886 104.475 53.1601 104.537 53.1123 104.615ZM108.774 105.306C108.825 105.457 109.751 105.504 112.692 105.504C115.632 105.504 116.559 105.457 116.609 105.306C116.661 105.151 115.808 105.108 112.692 105.108C109.576 105.108 108.723 105.151 108.774 105.306ZM24.3319 105.396L23.8937 105.446L23.9362 109.117L23.9787 112.788H25.1657H26.3528L26.3952 109.121L26.4376 105.454L25.6038 105.4C25.1453 105.37 24.5728 105.368 24.3319 105.396ZM25.9571 109.067V112.392H25.1657H24.3743V109.067V105.741H25.1657H25.9571V109.067ZM73.5108 108.568C73.4282 108.641 72.7194 109.106 71.936 109.601C70.8231 110.303 70.6411 110.383 71.1039 109.966C71.4298 109.672 72.1064 109.209 72.6075 108.936C73.5463 108.427 73.7717 108.335 73.5108 108.568ZM69.216 113.099C68.4767 113.421 68.1608 114.138 68.2926 115.194C68.4155 116.177 69.0525 117.054 69.7401 117.185C70.4044 117.312 71.1807 117.015 71.5545 116.489C71.8522 116.071 71.8853 115.875 71.7981 115.041C71.6783 113.894 71.3876 113.395 70.6625 113.092C70.0093 112.819 69.8589 112.819 69.216 113.099ZM24.2881 113.731C23.5222 114.497 24.0603 115.883 25.119 115.871C25.6252 115.865 25.9831 115.632 26.2478 115.134C26.5324 114.599 26.4712 114.307 25.9693 113.805C25.3984 113.234 24.8107 113.208 24.2881 113.731ZM70.6791 113.573C70.962 113.785 70.9398 113.796 70.3996 113.711C69.9661 113.644 69.6652 113.707 69.2482 113.953C68.6879 114.284 68.6847 114.284 68.8559 113.964C69.1687 113.379 70.1424 113.17 70.6791 113.573ZM25.714 114.128C26.1046 114.56 25.9253 115.205 25.3762 115.343C24.8257 115.481 24.4658 115.237 24.4003 114.68C24.3082 113.898 25.1757 113.533 25.714 114.128ZM20.4852 116.024C21.3113 116.74 22.2395 117.209 23.4247 117.51L24.2952 117.732L24.3421 118.783L24.3888 119.835H21.0579C16.8156 119.835 16.7278 119.951 20.3383 120.785C21.1218 120.966 22.03 121.185 22.3563 121.272L22.9499 121.43V122.686V123.942L21.0901 123.986C18.2531 124.055 18.7548 124.34 21.8024 124.391L24.3743 124.435V127.123V129.811H13.216H2.05757V127.844V125.876L3.96305 125.131C5.04232 124.708 5.84304 124.308 5.8098 124.208C5.77039 124.09 4.88073 124.017 3.11295 123.988L0.474825 123.944V122.048V120.151H5.77704C9.20638 120.151 11.0792 120.096 11.0792 119.993C11.0792 119.844 8.37385 119.786 3.75903 119.834L2.05757 119.852V117.628V115.403L10.9246 115.414L19.7918 115.424L20.4852 116.024ZM102.087 117.38C102.087 117.572 102.338 117.618 103.395 117.618H104.703L106.906 119.826L109.108 122.033L109.689 121.573L110.27 121.113L110.479 121.503C110.819 122.139 111.145 121.957 111.847 120.74C113.821 117.313 113.576 117.618 114.361 117.618C114.882 117.618 115.066 117.556 115.066 117.38C115.066 117.173 114.239 117.143 108.577 117.143C102.914 117.143 102.087 117.173 102.087 117.38ZM112.692 117.734C112.692 117.913 109.316 121.26 109.136 121.26C108.952 121.26 105.569 117.921 105.569 117.739C105.569 117.672 107.172 117.618 109.131 117.618C111.089 117.618 112.692 117.67 112.692 117.734ZM12.5433 117.974C12.5936 118.125 13.5202 118.172 16.4606 118.172C19.401 118.172 20.3276 118.125 20.3779 117.974C20.4295 117.819 19.5769 117.776 16.4606 117.776C13.3443 117.776 12.4917 117.819 12.5433 117.974ZM4.53917 126.589C4.48013 126.648 4.4317 126.756 4.4317 126.829C4.4317 126.901 7.03738 126.961 10.2219 126.961C14.7837 126.961 15.9981 126.919 15.9462 126.763C15.8956 126.61 14.5863 126.555 10.2635 126.523C7.17429 126.5 4.59836 126.53 4.53917 126.589ZM109.282 127.922C109.031 128.328 109.614 128.39 113.336 128.349C116.648 128.313 117.203 128.273 117.203 128.069C117.203 127.865 116.644 127.826 113.296 127.789C110.574 127.76 109.357 127.8 109.282 127.922ZM12.5433 128.109C12.5939 128.261 13.6625 128.307 17.1727 128.307C20.6829 128.307 21.7516 128.261 21.8024 128.109C21.8541 127.953 20.8589 127.911 17.1728 127.911C13.4868 127.911 12.4915 127.953 12.5433 128.109Z" fill="#3A3A3A"/>
</g>
<defs>
<clipPath id="clip0_275_3891">
<rect width="125.116" height="139.406" fill="white" transform="translate(0 9.52686)"/>
</clipPath>
</defs>
</svg>
