<svg width="94" height="25" viewBox="0 0 94 25" fill="none" xmlns="http://www.w3.org/2000/svg">
<path d="M52.6228 9.56027C51.7003 9.56027 50.8916 9.35029 50.1967 8.93033C49.5143 8.49802 48.9836 7.91748 48.6045 7.18873C48.2254 6.45997 48.0359 5.65711 48.0359 4.78013C48.0359 3.89081 48.2254 3.08794 48.6045 2.37154C48.9836 1.64278 49.5143 1.06843 50.1967 0.648468C50.8916 0.216156 51.7003 0 52.6228 0C53.4062 0 54.0759 0.148221 54.6319 0.444663C55.2005 0.741106 55.6617 1.14254 56.0155 1.64896V0.148221H57.4371V9.41205H56.0155V7.92983C55.6617 8.42391 55.2005 8.81916 54.6319 9.1156C54.0759 9.41205 53.4062 9.56027 52.6228 9.56027ZM52.8123 8.30039C53.5199 8.30039 54.1138 8.13982 54.594 7.81867C55.0868 7.49752 55.4596 7.07139 55.7123 6.54026C55.965 5.99678 56.0914 5.41007 56.0914 4.78013C56.0914 4.13784 55.965 3.55113 55.7123 3.02001C55.4596 2.48888 55.0868 2.06274 54.594 1.7416C54.1138 1.42045 53.5199 1.25988 52.8123 1.25988C52.1173 1.25988 51.5171 1.42045 51.0117 1.7416C50.5062 2.06274 50.1208 2.48888 49.8555 3.02001C49.5901 3.55113 49.4574 4.13784 49.4574 4.78013C49.4574 5.41007 49.5901 5.99678 49.8555 6.54026C50.1208 7.07139 50.5062 7.49752 51.0117 7.81867C51.5171 8.13982 52.1173 8.30039 52.8123 8.30039Z" fill="#3A3A3A"/>
<path d="M42.3301 9.41205V0.148222H43.7516V2.42712C43.8022 2.26655 43.8969 2.05657 44.0359 1.79718C44.1876 1.52544 44.4024 1.2537 44.6804 0.981966C44.9584 0.710227 45.3059 0.481719 45.7229 0.296442C46.1525 0.098814 46.6579 0 47.2392 0H47.3339V1.38957H47.1634C46.4557 1.38957 45.8429 1.58103 45.3248 1.96393C44.8194 2.33448 44.4277 2.82238 44.1497 3.42762C43.8843 4.0205 43.7516 4.65662 43.7516 5.33596V9.41205H42.3301Z" fill="#3A3A3A"/>
<path d="M33.894 13.0806L35.6188 9.28239L31.7522 0.148254H33.3254L36.377 7.74459L39.4854 0.148254H41.0397L35.4293 13.0806H33.894Z" fill="#3A3A3A"/>
<path d="M25.6355 9.56027C24.713 9.56027 23.9043 9.35029 23.2093 8.93033C22.527 8.49802 21.9963 7.91748 21.6172 7.18873C21.2381 6.45997 21.0486 5.65711 21.0486 4.78013C21.0486 3.89081 21.2381 3.08794 21.6172 2.37154C21.9963 1.64278 22.527 1.06843 23.2093 0.648468C23.9043 0.216156 24.713 0 25.6355 0C26.4189 0 27.0886 0.148221 27.6446 0.444663C28.2132 0.741106 28.6744 1.14254 29.0282 1.64896V0.148221H30.4498V9.41205H29.0282V7.92983C28.6744 8.42391 28.2132 8.81916 27.6446 9.1156C27.0886 9.41205 26.4189 9.56027 25.6355 9.56027ZM25.825 8.30039C26.5326 8.30039 27.1265 8.13982 27.6067 7.81867C28.0995 7.49752 28.4723 7.07139 28.725 6.54026C28.9777 5.99678 29.1041 5.41007 29.1041 4.78013C29.1041 4.13784 28.9777 3.55113 28.725 3.02001C28.4723 2.48888 28.0995 2.06274 27.6067 1.7416C27.1265 1.42045 26.5326 1.25988 25.825 1.25988C25.13 1.25988 24.5298 1.42045 24.0244 1.7416C23.5189 2.06274 23.1335 2.48888 22.8682 3.02001C22.6028 3.55113 22.4701 4.13784 22.4701 4.78013C22.4701 5.41007 22.6028 5.99678 22.8682 6.54026C23.1335 7.07139 23.5189 7.49752 24.0244 7.81867C24.5298 8.13982 25.13 8.30039 25.825 8.30039Z" fill="#3A3A3A"/>
<path d="M5.18091 9.41205V0.148222H6.60246V1.55632C6.81727 1.18577 7.15845 0.833744 7.62598 0.500246C8.09351 0.166749 8.71268 0 9.48348 0C10.1153 0 10.6965 0.166749 11.2272 0.500246C11.7706 0.821393 12.1939 1.27841 12.4972 1.87129C12.6235 1.66131 12.8194 1.4081 13.0847 1.11166C13.3627 0.815216 13.7229 0.555829 14.1651 0.333498C14.6074 0.111166 15.1381 0 15.7573 0C16.3638 0 16.9324 0.154397 17.4631 0.463192C17.9938 0.771985 18.4235 1.21665 18.752 1.79718C19.0932 2.36536 19.2638 3.03854 19.2638 3.8167V9.41205H17.8422V3.85375C17.8422 3.07559 17.6148 2.45183 17.1599 1.98246C16.7176 1.50074 16.1616 1.25988 15.4919 1.25988C14.7969 1.25988 14.1967 1.48839 13.6913 1.9454C13.1858 2.40242 12.9331 3.04471 12.9331 3.87228V9.41205H11.5116V3.85375C11.5116 3.07559 11.2841 2.45183 10.8292 1.98246C10.387 1.50074 9.83097 1.25988 9.16126 1.25988C8.46628 1.25988 7.86606 1.48839 7.36062 1.9454C6.85518 2.40242 6.60246 3.04471 6.60246 3.87228V9.41205H5.18091Z" fill="#3A3A3A"/>
<path d="M89.2995 25C88.3391 25 87.5052 24.79 86.7975 24.3701C86.0899 23.9378 85.5466 23.3572 85.1675 22.6285C84.7884 21.8997 84.5989 21.0969 84.5989 20.2199C84.5989 19.3306 84.7884 18.5277 85.1675 17.8113C85.5466 17.0825 86.0899 16.5082 86.7975 16.0882C87.5052 15.6559 88.3391 15.4398 89.2995 15.4398C90.2725 15.4398 91.1064 15.6559 91.8014 16.0882C92.509 16.5082 93.0524 17.0825 93.4315 17.8113C93.8105 18.5277 94.0001 19.3306 94.0001 20.2199C94.0001 21.0969 93.8105 21.8997 93.4315 22.6285C93.0524 23.3572 92.509 23.9378 91.8014 24.3701C91.1064 24.79 90.2725 25 89.2995 25ZM89.2995 23.7401C90.0071 23.7401 90.601 23.5796 91.0812 23.2584C91.574 22.9373 91.9467 22.5111 92.1995 21.98C92.4522 21.4365 92.5785 20.8498 92.5785 20.2199C92.5785 19.5776 92.4522 18.9909 92.1995 18.4598C91.9467 17.9286 91.574 17.5025 91.0812 17.1814C90.601 16.8602 90.0071 16.6996 89.2995 16.6996C88.6045 16.6996 88.0106 16.8602 87.5178 17.1814C87.025 17.5025 86.6522 17.9286 86.3995 18.4598C86.1468 18.9909 86.0204 19.5776 86.0204 20.2199C86.0204 20.8498 86.1468 21.4365 86.3995 21.98C86.6522 22.5111 87.025 22.9373 87.5178 23.2584C88.0106 23.5796 88.6045 23.7401 89.2995 23.7401Z" fill="#3A3A3A"/>
<path d="M77.9133 25C76.9909 25 76.1822 24.79 75.4872 24.3701C74.8048 23.9378 74.2741 23.3572 73.895 22.6285C73.516 21.8997 73.3264 21.0969 73.3264 20.2199C73.3264 19.3306 73.516 18.5277 73.895 17.8113C74.2741 17.0825 74.8048 16.5082 75.4872 16.0882C76.1822 15.6559 76.9909 15.4398 77.9133 15.4398C78.6967 15.4398 79.3664 15.588 79.9224 15.8844C80.491 16.1809 80.9523 16.5823 81.3061 17.0887V11.8824H82.7276V24.8518H81.3061V23.3696C80.9523 23.8637 80.491 24.2589 79.9224 24.5554C79.3664 24.8518 78.6967 25 77.9133 25ZM78.1028 23.7401C78.8105 23.7401 79.4043 23.5796 79.8845 23.2584C80.3773 22.9373 80.7501 22.5111 81.0028 21.98C81.2555 21.4365 81.3819 20.8498 81.3819 20.2199C81.3819 19.5776 81.2555 18.9909 81.0028 18.4598C80.7501 17.9286 80.3773 17.5025 79.8845 17.1814C79.4043 16.8602 78.8105 16.6996 78.1028 16.6996C77.4079 16.6996 76.8076 16.8602 76.3022 17.1814C75.7968 17.5025 75.4114 17.9286 75.146 18.4598C74.8806 18.9909 74.748 19.5776 74.748 20.2199C74.748 20.8498 74.8806 21.4365 75.146 21.98C75.4114 22.5111 75.7968 22.9373 76.3022 23.2584C76.8076 23.5796 77.4079 23.7401 78.1028 23.7401Z" fill="#3A3A3A"/>
<path d="M66.6408 25C65.7184 25 64.9097 24.79 64.2147 24.3701C63.5324 23.9378 63.0017 23.3572 62.6226 22.6285C62.2435 21.8997 62.054 21.0969 62.054 20.2199C62.054 19.3306 62.2435 18.5277 62.6226 17.8113C63.0017 17.0825 63.5324 16.5082 64.2147 16.0882C64.9097 15.6559 65.7184 15.4398 66.6408 15.4398C67.4243 15.4398 68.094 15.588 68.65 15.8844C69.2186 16.1809 69.6798 16.5823 70.0336 17.0887V15.588H71.4552V24.8518H70.0336V23.3696C69.6798 23.8637 69.2186 24.2589 68.65 24.5554C68.094 24.8518 67.4243 25 66.6408 25ZM66.8304 23.7401C67.538 23.7401 68.1319 23.5796 68.6121 23.2584C69.1049 22.9373 69.4776 22.5111 69.7303 21.98C69.9831 21.4365 70.1094 20.8498 70.1094 20.2199C70.1094 19.5776 69.9831 18.9909 69.7303 18.4598C69.4776 17.9286 69.1049 17.5025 68.6121 17.1814C68.1319 16.8602 67.538 16.6996 66.8304 16.6996C66.1354 16.6996 65.5352 16.8602 65.0297 17.1814C64.5243 17.5025 64.1389 17.9286 63.8735 18.4598C63.6082 18.9909 63.4755 19.5776 63.4755 20.2199C63.4755 20.8498 63.6082 21.4365 63.8735 21.98C64.1389 22.5111 64.5243 22.9373 65.0297 23.2584C65.5352 23.5796 66.1354 23.7401 66.8304 23.7401Z" fill="#3A3A3A"/>
<path d="M51.9058 24.8518V11.8824H53.3273V17.0331C53.6685 16.5885 54.0855 16.2117 54.5783 15.9029C55.0711 15.5942 55.7029 15.4398 56.4737 15.4398C57.1308 15.4398 57.7436 15.5942 58.3122 15.9029C58.8935 16.1994 59.361 16.6502 59.7148 17.2555C60.0813 17.8484 60.2645 18.5833 60.2645 19.4603V24.8518H58.8429V19.4973C58.8429 18.6574 58.5965 17.9842 58.1037 17.4778C57.6109 16.959 56.9728 16.6996 56.1894 16.6996C55.6587 16.6996 55.1785 16.817 54.7489 17.0517C54.3192 17.2863 53.9718 17.6198 53.7064 18.0522C53.4537 18.4721 53.3273 18.96 53.3273 19.5158V24.8518H51.9058Z" fill="#3A3A3A"/>
<path d="M45.671 25C44.7233 25 43.9019 24.79 43.207 24.3701C42.512 23.9378 41.9686 23.3572 41.5769 22.6285C41.1978 21.8997 41.0083 21.0969 41.0083 20.2199C41.0083 19.3306 41.1978 18.5277 41.5769 17.8113C41.9686 17.0825 42.512 16.5082 43.207 16.0882C43.9019 15.6559 44.7233 15.4398 45.671 15.4398C46.7956 15.4398 47.7496 15.7238 48.5331 16.292C49.3291 16.8602 49.8662 17.5951 50.1441 18.4968H48.6089C48.3941 17.9657 48.0466 17.5334 47.5664 17.1999C47.0989 16.8664 46.5302 16.6996 45.8605 16.6996C45.1656 16.6996 44.559 16.8602 44.0409 17.1814C43.5229 17.5025 43.1248 17.9286 42.8468 18.4598C42.5688 18.9909 42.4299 19.5776 42.4299 20.2199C42.4299 20.8498 42.5688 21.4365 42.8468 21.98C43.1248 22.5111 43.5229 22.9373 44.0409 23.2584C44.559 23.5796 45.1656 23.7401 45.8605 23.7401C46.5302 23.7401 47.0989 23.5734 47.5664 23.2399C48.0466 22.9064 48.3941 22.4741 48.6089 21.943H50.1441C49.8662 22.8446 49.3291 23.5796 48.5331 24.1478C47.7496 24.7159 46.7956 25 45.671 25Z" fill="#3A3A3A"/>
<path d="M34.3227 25C33.4003 25 32.5916 24.79 31.8966 24.3701C31.2143 23.9378 30.6835 23.3572 30.3045 22.6285C29.9254 21.8997 29.7358 21.0969 29.7358 20.2199C29.7358 19.3306 29.9254 18.5277 30.3045 17.8113C30.6835 17.0825 31.2143 16.5082 31.8966 16.0882C32.5916 15.6559 33.4003 15.4398 34.3227 15.4398C35.1062 15.4398 35.7759 15.588 36.3318 15.8844C36.9005 16.1809 37.3617 16.5823 37.7155 17.0887V15.588H39.137V24.8518H37.7155V23.3696C37.3617 23.8637 36.9005 24.2589 36.3318 24.5554C35.7759 24.8518 35.1062 25 34.3227 25ZM34.5123 23.7401C35.2199 23.7401 35.8138 23.5796 36.2939 23.2584C36.7867 22.9373 37.1595 22.5111 37.4122 21.98C37.6649 21.4365 37.7913 20.8498 37.7913 20.2199C37.7913 19.5776 37.6649 18.9909 37.4122 18.4598C37.1595 17.9286 36.7867 17.5025 36.2939 17.1814C35.8138 16.8602 35.2199 16.6996 34.5123 16.6996C33.8173 16.6996 33.2171 16.8602 32.7116 17.1814C32.2062 17.5025 31.8208 17.9286 31.5554 18.4598C31.2901 18.9909 31.1574 19.5776 31.1574 20.2199C31.1574 20.8498 31.2901 21.4365 31.5554 21.98C31.8208 22.5111 32.2062 22.9373 32.7116 23.2584C33.2171 23.5796 33.8173 23.7401 34.5123 23.7401Z" fill="#3A3A3A"/>
<path d="M13.8682 24.8518V15.588H15.2897V16.9961C15.5045 16.6255 15.8457 16.2735 16.3132 15.94C16.7808 15.6065 17.3999 15.4398 18.1707 15.4398C18.8025 15.4398 19.3838 15.6065 19.9145 15.94C20.4579 16.2612 20.8812 16.7182 21.1844 17.3111C21.3108 17.1011 21.5066 16.8479 21.772 16.5514C22.05 16.255 22.4101 15.9956 22.8524 15.7733C23.2946 15.5509 23.8254 15.4398 24.4445 15.4398C25.0511 15.4398 25.6197 15.5942 26.1504 15.9029C26.6811 16.2117 27.1107 16.6564 27.4393 17.2369C27.7804 17.8051 27.951 18.4783 27.951 19.2565V24.8518H26.5295V19.2935C26.5295 18.5153 26.302 17.8916 25.8471 17.4222C25.4049 16.9405 24.8489 16.6996 24.1792 16.6996C23.4842 16.6996 22.884 16.9281 22.3785 17.3852C21.8731 17.8422 21.6204 18.4845 21.6204 19.312V24.8518H20.1988V19.2935C20.1988 18.5153 19.9714 17.8916 19.5165 17.4222C19.0742 16.9405 18.5182 16.6996 17.8485 16.6996C17.1535 16.6996 16.5533 16.9281 16.0479 17.3852C15.5424 17.8422 15.2897 18.4845 15.2897 19.312V24.8518H13.8682Z" fill="#3A3A3A"/>
<path d="M3.94876 15.588L4.84226 18.5745L7.89752 19.4479L4.84226 20.3213L3.94876 23.3078L3.05526 20.3213L0 19.4479L3.05526 18.5745L3.94876 15.588Z" fill="#FFD324"/>
</svg>
