<svg width="400" height="445" viewBox="0 0 400 445" fill="none" xmlns="http://www.w3.org/2000/svg">
<path fill-rule="evenodd" clip-rule="evenodd" d="M31.7364 7.40186C31.2654 7.57311 30.1732 8.3717 29.3099 9.176L27.7398 10.6385V86.5411V162.443L26.402 164.21C24.1125 167.232 18.3219 177.12 15.2148 183.312C5.7553 202.166 1.97103 221.409 4.31079 238.764C7.45559 262.094 18.0679 287.358 26.1548 290.77C27.9362 291.521 27.7181 291.573 21.5895 291.867C15.3456 292.167 15.1023 292.228 13.3992 293.93C11.4505 295.879 10.9875 298.765 12.2464 301.117C13.7452 303.918 14.6319 304.099 28.3416 304.402L41.2188 304.688L47.3371 307.722C50.7023 309.391 54.414 310.908 55.5851 311.093C56.7567 311.277 57.9037 311.71 58.1344 312.054C58.365 312.398 58.5574 319.936 58.5626 328.805L58.5711 344.931H56.3867C54.8417 344.931 53.8391 345.318 52.961 346.252C51.77 347.52 51.7186 348.056 51.6957 359.524C51.6752 369.676 51.525 371.747 50.6966 373.285C50.1382 374.321 45.6945 378.267 40.3007 382.515C16.7558 401.059 6.80584 409.318 4.77783 412.004C1.36639 416.521 0.849683 418.812 1.03182 428.61L1.19054 437.12L5.59886 437.287C10.843 437.484 10.4919 438.12 10.734 427.987C10.875 422.1 11.0743 420.853 12.1517 419.12C13.45 417.033 13.9798 416.582 30.5945 403.422C52.0543 386.425 56.9668 382.417 57.2534 381.669C58.3342 378.854 58.5711 383.646 58.5711 408.293C58.5711 434.932 58.6031 435.725 59.713 436.835C60.57 437.692 61.616 437.976 63.9067 437.976C69.1731 437.976 68.8483 439.931 68.8483 408.27V380.651L71.5603 383.239C73.0522 384.663 76.8416 387.854 79.9818 390.33C90.7671 398.834 93.1285 400.69 99.6311 405.77C111.956 415.4 112.987 416.279 114.467 418.419C115.846 420.413 115.972 421.131 116.237 428.462C116.568 437.627 116.77 437.976 121.73 437.976C126.304 437.976 126.515 437.565 126.508 428.66C126.5 418.349 125.126 414.222 120.12 409.47C118.445 407.88 118.343 407.619 119.207 407.119C121.228 405.946 121.947 404.736 121.947 402.501C121.947 400.681 121.441 399.555 119.465 396.976C116.334 392.889 114.247 389.57 113.674 387.765C113.24 386.394 113.263 386.399 114.624 387.981C115.688 389.218 116.315 389.508 117.27 389.205C118.281 388.884 118.521 388.373 118.521 386.54C118.521 385.13 118.976 383.657 119.722 382.648C120.62 381.433 120.827 380.582 120.54 379.277C120.025 376.931 116.306 373.678 113.272 372.92C109.228 371.91 109.117 371.766 108.933 367.296C108.743 362.703 109.564 360.497 112.42 357.918C114.477 356.061 114.926 356.017 116.808 357.489C117.593 358.104 118.626 358.612 119.104 358.619C120.17 358.634 128.325 350.357 133.716 343.79C142.158 333.502 152.899 317.063 158.796 305.401L161.033 300.977H233.117H305.2L305.448 302.262C305.584 302.968 305.994 305.087 306.359 306.971C306.978 310.166 309.332 318.194 313.22 330.375C315.432 337.303 316.55 340.971 321.797 358.515C324.267 366.771 326.447 374.027 326.641 374.641C326.979 375.705 326.682 375.756 320.146 375.756C312.426 375.756 311.503 376.154 311.503 379.487C311.503 380.789 311.85 381.61 312.561 381.991C313.442 382.462 313.686 383.546 314.018 388.432C315.327 407.759 319.547 425.13 324.854 433.046L327.204 436.549L332.057 437.293C335.365 437.8 340.17 437.941 347.153 437.736L357.397 437.436L358.694 435.851C364.409 428.867 370.824 409.544 374.582 387.996C375.162 384.673 375.85 382.538 376.598 381.743C378.017 380.232 378.058 377.94 376.689 376.701C375.856 375.947 374.424 375.756 369.614 375.756H363.583L364.647 371.047C365.232 368.456 367.159 359.273 368.931 350.639C370.702 342.006 373.568 329.933 375.299 323.81C377.03 317.688 379.115 310.07 379.932 306.881L381.418 301.083L389.059 300.888L396.7 300.692L398.35 298.716L400 296.739V153.641V10.5431L397.982 8.77186L395.963 7L214.278 7.0451C114.351 7.06964 32.2075 7.23062 31.7364 7.40186ZM321.244 9.27533C394.893 9.28332 395.222 9.28846 396.466 10.4472C397.623 11.5244 397.716 12.142 397.716 18.7243V25.8374H213.87H30.0236V18.6963C30.0236 12.2242 30.1321 11.4627 31.1838 10.562C32.2748 9.6281 38.7106 9.55104 138.665 9.27133C197.142 9.10807 245.501 9.04015 246.129 9.1212C246.757 9.20169 280.559 9.27133 321.244 9.27533ZM370.537 14.1445C369.414 15.8587 369.69 21.0989 370.946 21.8935C371.382 22.1692 373.209 22.3987 375.008 22.4038C377.877 22.4113 378.393 22.2366 379.22 20.9739C379.887 19.9573 380.078 18.7865 379.875 16.9787C379.46 13.3054 378.754 12.7083 374.822 12.7083C371.88 12.7083 371.366 12.8807 370.537 14.1445ZM384.584 13.3944C384.584 13.7723 385.357 14.878 386.302 15.8524L388.019 17.6237L386.302 19.2688C385.357 20.173 384.584 21.2508 384.584 21.6629C384.584 22.909 386.345 22.5054 387.541 20.9853C388.956 19.1872 389.541 19.1958 391.249 21.0378C392.029 21.8792 392.981 22.3799 393.456 22.1978C394.642 21.7422 394.497 21.0921 392.863 19.5583C391.066 17.8697 391.078 17.4256 392.973 15.4471C394.16 14.209 394.357 13.6878 393.834 13.165C393.311 12.6421 392.789 12.8384 391.551 14.0252C389.572 15.9204 389.128 15.9323 387.439 14.1354C386.018 12.6227 384.584 12.2511 384.584 13.3944ZM377.162 17.5929V20.1947L374.735 20.0189C372.545 19.8608 372.291 19.6861 372.123 18.2259C371.823 15.603 372.34 14.9916 374.86 14.9916H377.162V17.5929ZM355.535 20.632C353.854 21.724 355.622 22.4124 360.109 22.4124C364.159 22.4124 364.663 22.2977 364.494 21.4135C364.338 20.5932 363.59 20.3882 360.313 20.2678C358.118 20.1867 355.968 20.3511 355.535 20.632ZM397.431 45.8164V63.2267H213.87H30.3091L30.1578 46.3941C30.0744 37.1358 30.1298 29.2384 30.2811 28.8445C30.5009 28.2708 67.2479 28.1555 213.993 28.2668L397.431 28.4061V45.8164ZM98.0364 35.4981C97.6037 35.7658 97.4261 36.2704 97.6419 36.6192C97.8994 37.0359 97.3855 37.2545 96.1449 37.2551C91.5441 37.2568 87.6879 41.1362 87.6919 45.7582C87.6959 50.7033 91.1296 53.9998 96.2973 54.0181C100.629 54.0335 104.247 50.5731 104.247 46.4158C104.247 43.8967 102.719 44.1667 101.986 46.8154C101.271 49.3955 100.949 49.8813 99.1241 51.1297C97.3159 52.3673 95.0903 52.3576 92.9041 51.1029C90.8704 49.9361 89.9735 48.2253 89.9735 45.5133C89.9735 43.1432 92.412 40.1823 94.5411 39.9671C95.7264 39.8473 95.9382 40.0408 95.7897 41.1071C95.5739 42.6597 96.476 42.7499 99.6208 41.4918L101.869 40.5928L101.01 38.495C99.8869 35.7538 99.0265 34.8862 98.0364 35.4981ZM119.46 36.7208C117.958 37.9013 117.95 37.9492 117.95 45.7696C117.95 53.0368 118.041 53.7133 119.152 54.7185C120.326 55.7803 123.128 55.8059 239.031 55.8059C352.2 55.8059 357.756 55.7586 358.728 54.7864C359.61 53.9056 359.748 52.6881 359.748 45.8164C359.748 38.9448 359.61 37.7272 358.728 36.8464C357.757 35.8754 352.102 35.82 239.339 35.6802L120.969 35.5335L119.46 36.7208ZM375.913 35.9616C375.039 36.0866 373.502 37.1507 372.344 38.4316C370.654 40.3016 370.311 41.1122 370.311 43.2254C370.311 45.3946 370.633 46.1075 372.506 48.0758C374.466 50.1359 374.99 50.3831 377.397 50.3831C378.879 50.3831 380.56 50.1325 381.132 49.8265C381.953 49.387 382.586 49.6564 384.149 51.1109C388.065 54.7573 388.295 54.9086 389.139 54.3863C389.786 53.9867 389.331 53.2184 386.961 50.713C384.426 48.033 384.056 47.3742 384.56 46.4329C385.505 44.6673 385.254 41.2589 384.033 39.2833C382.416 36.6672 379.453 35.4553 375.913 35.9616ZM43.8691 41.2937C41.2787 43.5131 39.1605 45.6309 39.1628 46.0008C39.1651 46.3701 39.9998 47.2555 41.0184 47.9679C42.037 48.6803 44.1472 50.4219 45.7088 51.8381C48.4162 54.295 49.9526 54.8292 50.4048 53.4707C50.519 53.1287 48.6754 51.2467 46.3083 49.2893L42.0044 45.7302L46.2523 42.2054C48.5886 40.2668 50.5173 38.3602 50.539 37.9675C50.6281 36.3367 48.3026 37.4966 43.8691 41.2937ZM63.7097 38.036C63.7097 38.4658 65.5265 40.3285 67.7469 42.1745L71.7841 45.531L67.7321 49.2414C63.8113 52.8325 62.8424 54.3789 64.513 54.3789C65.7571 54.3789 74.2723 46.8919 74.2723 45.7982C74.2723 44.6936 65.7937 37.254 64.5347 37.254C64.0808 37.254 63.7097 37.6056 63.7097 38.036ZM357.313 39.1822C357.543 39.5344 357.736 42.5655 357.741 45.9186C357.748 50.7073 357.557 52.2063 356.853 52.9113C356.042 53.7207 344.603 53.8075 239.379 53.8C175.262 53.796 122.225 53.6374 121.519 53.4484C120.27 53.1139 120.234 52.8936 120.234 45.7513V38.3985L223.719 38.2546C338.831 38.0942 356.681 38.2181 357.313 39.1822ZM381.47 39.797C384.536 42.8629 382.326 48.3281 378.02 48.3281C376.326 48.3281 375.531 47.9428 374.235 46.4923C372.392 44.4304 372.207 43.0839 373.439 40.7024C374.429 38.7878 374.995 38.5012 377.901 38.4407C379.481 38.4076 380.449 38.7758 381.47 39.797ZM287.523 67.988C287.523 69.5081 287.354 74.6525 287.147 79.42L286.772 88.0881L285.577 87.0029C283.666 85.2659 282.052 84.6328 279.538 84.6328C274.97 84.6328 271.536 87.7787 270.311 93.0868C268.022 103.002 277.339 111.672 284.821 106.589L286.952 105.142V114.514C286.952 123.752 286.97 123.892 288.236 124.231C290.183 124.753 309.79 124.658 309.79 124.127C309.79 123.872 309.003 123.083 308.043 122.373C302.665 118.397 302.793 110.967 308.294 107.774C311.654 105.825 314.283 105.485 317.893 106.534C322.556 107.89 325.207 111.164 325.203 115.563C325.201 118.607 323.595 121.378 320.919 122.957C319.823 123.603 319.045 124.324 319.19 124.558C319.335 124.793 328.135 125.165 338.744 125.385C349.354 125.605 358.994 125.934 360.167 126.116L362.298 126.446L360.896 128.114C354.778 135.381 361.955 146.045 372.249 144.983C381.839 143.993 386.444 134.739 380.727 127.946L379.183 126.112L381.964 126.493C383.493 126.703 387.662 126.874 391.23 126.874H397.716V211.28V295.686L396.533 297.19C395.376 298.66 395.199 298.694 388.75 298.694H382.15L382.517 296.268C385.323 277.758 385.784 265.988 384.305 250.693C383.365 240.982 381.305 226.155 380.829 225.679C380.662 225.512 380.323 225.703 380.076 226.102C379.615 226.848 375.173 242.204 367.992 267.869C365.753 275.875 363.301 284.48 362.543 286.992L361.166 291.559L361.452 283.852C362.024 268.445 362.981 217.79 362.794 212.784C362.618 208.043 362.509 207.633 361.383 207.473C360.326 207.322 359.924 207.962 358.366 212.267C353.941 224.494 350.212 244.657 348.822 263.873C348.584 267.17 348.305 269.353 348.203 268.725C346.407 257.69 343.769 244.596 341.419 235.046C338.059 221.398 338.047 221.364 336.763 221.171C335.802 221.027 335.537 221.383 335.274 223.169C334.307 229.731 333.626 254.109 333.884 272.908L334.171 293.842L332.901 286.136C332.202 281.897 331.331 276.631 330.964 274.434C329.753 267.176 326.282 252.291 324.03 244.701C319.774 230.358 314.167 217.636 312.101 217.636C311.495 217.636 310.849 217.879 310.665 218.177C310.322 218.73 311.379 229.656 314.375 256.532C315.307 264.896 316.06 271.96 316.048 272.23C316.036 272.5 313.66 265.657 310.767 257.023C306.188 243.356 305.348 241.303 304.277 241.15C303.123 240.986 303.02 241.287 302.626 246.002C302.044 252.975 302.716 277.811 303.766 288.134C304.245 292.843 304.64 297.146 304.644 297.695C304.651 298.641 300.888 298.694 233.568 298.694C194.472 298.694 162.484 298.56 162.484 298.396C162.484 298.232 163.277 296.37 164.246 294.258C168.429 285.136 171.749 274.193 172.684 266.442C173.755 257.571 171.522 251.336 166.042 247.895C162.957 245.958 163.467 245.839 169.714 247.034C172.175 247.505 174.864 247.89 175.689 247.89C176.514 247.89 177.523 248.293 177.931 248.784C178.34 249.276 179.352 250.029 180.182 250.458C182.312 251.559 184.147 250.524 185.747 247.318C186.452 245.905 188.892 242.569 191.171 239.903C193.45 237.237 195.956 234.3 196.741 233.378C197.526 232.455 199.325 230.369 200.738 228.742C202.151 227.115 205.026 223.758 207.126 221.282C209.226 218.806 213.264 214.083 216.098 210.786C221.806 204.148 222.399 202.543 219.722 200.986C217.607 199.755 216.237 200.365 213.518 203.747C212.299 205.264 211.169 206.633 211.008 206.79C210.847 206.947 208.481 209.773 205.75 213.07C185.307 237.748 181.672 241.923 180.297 242.304C178.664 242.757 171.169 241.703 170.049 240.864C169.657 240.57 169.336 239.74 169.336 239.019C169.336 236.979 167.318 232.771 165.555 231.137C163.363 229.104 155.486 225.814 151.033 225.071C141.49 223.479 133.697 221.286 109.386 213.352C104.204 211.661 97.4118 209.616 94.2916 208.808C91.1713 207.999 88.5101 207.23 88.3776 207.098C87.906 206.627 92.4868 199.726 95.5494 196.295C100.465 190.788 109.537 178.914 112.148 174.569C113.458 172.389 115.094 168.856 115.782 166.72C117.165 162.425 117.409 162.294 121.376 163.693C124.648 164.848 133.038 164.822 136.291 163.647C138.096 162.996 139.799 162.843 142.424 163.099C146.14 163.46 148.781 162.59 148.781 161.002C148.781 160.637 150.066 159.15 151.636 157.699C154.531 155.024 155.327 152.846 153.646 152.201C152.961 151.939 153.109 151.428 154.426 149.508C156.803 146.043 159.35 140.748 160.412 137.061C162.612 129.43 160.718 121.506 155.382 116.006C150.245 110.712 144.05 108.801 133.968 109.398C123.791 110.002 116.612 112.396 112.057 116.704C109.414 119.205 107.137 123.282 107.115 125.556C107.095 127.49 106.307 127.57 103.194 125.956C95.5773 122.004 81.5982 124.559 64.5661 133.014C52.9815 138.763 44.3259 144.974 35.8758 153.596L30.0236 159.567V112.396V65.2246H158.773H287.523V67.988ZM340.621 75.8015V85.8761L338.883 84.4136C331.956 78.586 322.972 83.945 322.934 93.9271C322.907 100.944 327.366 106.324 333.208 106.324C335.756 106.324 337.336 105.691 339.336 103.87L340.621 102.7V113.36V124.02H331.486C326.461 124.02 322.351 123.825 322.351 123.587C322.351 123.348 322.825 122.857 323.403 122.496C325.89 120.943 327.111 115.265 325.738 111.642C323.782 106.479 316.956 103.61 310.853 105.384C306.109 106.762 302.938 110.539 302.938 114.812C302.938 117.74 303.771 119.91 305.651 121.879L307.148 123.449H298.524C293.781 123.449 289.493 123.293 288.997 123.103C288.22 122.805 288.094 121.33 288.094 112.542C288.094 102.548 287.773 100.87 286.364 103.501C285.401 105.3 282.346 106.891 279.85 106.893C274.949 106.897 271.235 102.06 271.305 95.764C271.414 85.9252 280.298 82.2725 286.287 89.6036L288.055 91.7682L288.077 86.3453C288.088 83.3627 288.265 77.6516 288.469 73.6535L288.84 66.3846L304.025 66.2327C312.377 66.1494 324.028 66.0015 329.916 65.9039L340.621 65.727V75.8015ZM389.47 66.3663H397.024L397.354 75.6423C397.536 80.7443 397.814 94.1417 397.972 105.414L398.26 125.911L387.711 125.56C381.909 125.367 377.162 125.38 377.162 125.59C377.162 125.799 378.109 126.939 379.266 128.124C381.116 130.018 381.4 130.689 381.616 133.682C381.813 136.416 381.63 137.461 380.682 138.994C377.741 143.753 369.561 145.351 364.68 142.121C361.401 139.952 360.038 137.552 360.036 133.944C360.033 130.908 361.072 128.95 363.885 126.686C364.599 126.111 365.037 125.405 364.858 125.116C364.679 124.826 359.574 124.591 353.434 124.591H342.334V112.413C342.334 105.715 342.164 100.066 341.957 99.8586C341.75 99.6519 340.71 100.499 339.645 101.742C333.864 108.495 324.638 103.512 324.497 93.5606C324.441 89.5494 325.408 87.237 328.084 84.9862C331.755 81.8969 335.826 82.4922 339.28 86.6227C340.44 88.0104 341.601 89.014 341.861 88.8536C342.121 88.6926 342.334 83.3976 342.334 77.0859V65.6105L362.125 65.9884C373.01 66.1962 385.315 66.3663 389.47 66.3663ZM99.5363 126.326C103.074 127.084 108.122 130.985 110.816 135.042C111.917 136.7 113.509 140.101 114.354 142.598C115.726 146.656 115.883 147.928 115.835 154.559C115.786 161.352 115.633 162.388 114.024 166.793C112.068 172.146 110.191 175.188 103.468 183.901C94.1905 195.928 92.621 197.203 81.9373 201.403C71.7298 205.415 69.446 206.99 70.6296 209.202C71.2925 210.44 72.8061 210.472 79.0158 209.379C81.6244 208.92 84.5152 208.696 85.439 208.881C87.0382 209.2 87.1181 209.357 87.1061 212.142C87.093 215.19 85.6725 219.091 84.1029 220.389C83.6005 220.805 83.3367 221.527 83.516 221.994C83.7758 222.671 84.1789 222.521 85.4938 221.262C87.3642 219.471 88.8316 215.196 88.8316 211.539C88.8316 208.96 89.3437 208.483 90.553 209.94C91.0383 210.525 91.173 211.902 90.9663 214.177C90.6158 218.042 88.6557 221.369 84.7704 224.694C81.5948 227.412 73.7059 231.466 72.1147 231.197C70.9391 230.999 70.9711 230.928 72.5594 230.225C76.9786 228.267 79.1254 226.997 79.1254 226.342C79.1254 225.285 78.0771 225.467 75.4644 226.977C69.4609 230.447 64.1802 230.927 56.361 228.715C52.4197 227.599 49.6951 225.432 49.0614 222.907C48.5024 220.681 49.6295 212.363 51.3223 206.22C57.1346 185.125 70.4258 164.939 85.6913 154.021C86.9474 153.123 88.9389 151.476 90.1162 150.361C93.599 147.063 92.7877 145.29 87.5486 144.749C85.2774 144.515 83.9813 144.686 82.5882 145.407C79.798 146.849 77.5513 149.397 76.7702 152.005C76.3591 153.376 75.1493 155.174 73.7898 156.434C67.752 162.031 67.7064 162.089 67.7064 164.149C67.7064 165.753 66.9853 167.041 64.046 170.68C56.6219 179.873 55.3401 182.896 50.9095 201.653C50.7982 202.124 50.0548 204.949 49.2578 207.932C47.6072 214.106 46.8535 220.146 47.3822 222.964C47.5917 224.081 48.6229 225.766 49.8441 226.987C53.0763 230.218 59.8906 231.877 74.8432 233.073C78.9256 233.4 82.6779 233.789 83.1814 233.94C84.3741 234.297 86.2497 237.794 85.8318 238.882C85.6348 239.396 84.4158 239.857 82.727 240.057C78.1205 240.602 66.2407 243.676 57.061 246.698C41.7823 251.728 26.494 258.669 17.6088 264.611C15.2947 266.158 13.3227 267.331 13.2262 267.218C12.6592 266.554 9.24666 255.097 7.809 249.032C4.84177 236.511 4.72073 219.688 7.51782 208.509C11.7851 191.452 20.8901 173.352 31.785 160.268C43.1749 146.588 60.2754 135.076 78.0086 129.149C87.6754 125.918 93.8554 125.108 99.5363 126.326ZM128.472 133.479C128.965 133.973 129.369 134.951 129.369 135.654C129.369 137.145 130.803 139.331 131.393 138.741C131.925 138.209 134.845 139.744 137.435 141.918C139.29 143.474 139.477 143.879 139.221 145.788C138.912 148.093 140.15 150.7 142.608 152.914C144.809 154.897 145.849 154.988 147.387 153.329C148.346 152.294 148.781 152.093 148.781 152.685C148.781 153.976 143.635 158.536 140.235 160.259C136.773 162.013 135.447 161.842 135.983 159.71C136.256 158.623 136.122 158.27 135.437 158.27C134.482 158.27 133.583 160.661 134.177 161.621C134.702 162.471 132.588 162.937 128.208 162.937C122.718 162.937 120.237 162.05 120.224 160.081C120.218 159.242 119.685 156.629 119.037 154.274C118.389 151.919 117.625 148.684 117.34 147.085C117.054 145.486 116.429 143.069 115.952 141.716C114.963 138.913 115.094 138.515 116.722 139.386C117.356 139.726 118.371 140.003 118.977 140.003C119.584 140.003 120.755 140.534 121.578 141.182C123.577 142.753 124.597 142.075 123.099 140.172C121.692 138.384 121.647 136.126 122.985 134.526C124.701 132.474 127.023 132.031 128.472 133.479ZM124.345 135.551C123.547 136.348 123.423 138.291 124.169 138.291C124.45 138.291 124.827 137.906 125.008 137.435C125.2 136.934 126.056 136.578 127.068 136.578C128.912 136.578 129.392 135.787 127.895 135.212C126.482 134.671 125.093 134.803 124.345 135.551ZM148.171 135.702C149.059 136.161 150.738 137.86 151.899 139.477C153.061 141.095 154.488 142.542 155.069 142.694C155.765 142.876 156.007 143.291 155.781 143.913C155.244 145.382 151.073 151.42 150.594 151.42C150.358 151.42 148.891 150.112 147.332 148.512C144.341 145.441 137.673 139.856 134.793 138.008L133.08 136.908L137.077 135.951C142.175 134.729 146.119 134.641 148.171 135.702ZM147.946 144.536C147.492 145.271 149.898 147.424 151.173 147.424C152.357 147.424 152.573 145.734 151.522 144.684C150.708 143.87 148.417 143.775 147.946 144.536ZM144.174 148.232C145.53 149.682 145.537 149.734 144.462 150.521C143.168 151.466 142.306 150.948 141.013 148.448C139.385 145.301 141.309 145.169 144.174 148.232ZM151.065 155.719C151.065 156.639 149.545 157.512 148.961 156.927C148.554 156.52 149.845 154.845 150.564 154.845C150.84 154.845 151.065 155.238 151.065 155.719ZM144.979 161.595C143.051 161.844 142.539 161.212 143.876 160.235C144.825 159.542 145.059 159.566 145.692 160.424C146.326 161.283 146.235 161.433 144.979 161.595ZM218.894 202.338C219.271 202.715 219.579 203.21 219.579 203.438C219.579 203.828 211.596 213.552 203.878 222.562C201.994 224.762 197.159 230.462 193.134 235.228C189.109 239.994 185.627 243.894 185.398 243.894C185.168 243.894 184.677 243.591 184.305 243.22C183.497 242.412 183.796 241.998 194.163 229.55C198.25 224.643 205.133 216.359 209.458 211.141C213.783 205.922 217.521 201.653 217.765 201.653C218.009 201.653 218.517 201.961 218.894 202.338ZM361.746 212.213V215.924H360.073C358.518 215.924 358.432 215.813 358.857 214.354C359.55 211.974 361.077 208.503 361.432 208.503C361.605 208.503 361.746 210.173 361.746 212.213ZM95.9684 210.826C99.2446 211.693 114.544 216.481 116.237 217.169C124.211 220.41 139.427 224.591 150.103 226.474C157.148 227.716 159.617 230.358 159.626 236.664C159.631 239.545 158.5 239.181 157.29 235.911C155.653 231.488 153.774 231.023 147.001 233.363C140.65 235.557 140.625 235.559 135.538 234.004C131.444 232.753 129.315 232.507 119.948 232.209C113.982 232.018 106.788 231.615 103.962 231.312C86.3154 229.421 83.5331 229.084 83.2471 228.798C83.0724 228.623 84.4866 227.071 86.3896 225.349C90.8721 221.294 92.384 218.421 92.4737 213.788C92.5119 211.828 92.7997 210.224 93.1137 210.223C93.4277 210.222 94.7124 210.494 95.9684 210.826ZM361.461 219.063C361.461 220.63 361.279 220.791 359.32 220.953C357.067 221.139 356.869 220.847 357.546 218.319C357.834 217.248 358.229 217.036 359.68 217.177C361.239 217.329 361.461 217.564 361.461 219.063ZM314.121 222.3C314.921 223.879 315.494 225.253 315.394 225.353C315.294 225.453 314.505 225.712 313.642 225.929C312.112 226.313 312.074 226.262 312.066 223.834C312.062 222.466 311.892 220.728 311.69 219.973C311.092 217.738 312.485 219.071 314.121 222.3ZM361.746 228.101C361.746 231.346 361.625 234.122 361.476 234.27C361.328 234.419 359.658 234.284 357.765 233.971C353.832 233.321 353.863 233.396 355.184 227.697C356.478 222.122 356.418 222.203 359.238 222.203H361.746V228.101ZM338.845 229.923C343.991 250.404 347.258 268.128 349.447 287.439C351.074 301.788 351.468 310.198 352.919 361.485C353.093 367.607 353.345 373.323 353.479 374.186C353.71 375.662 353.597 375.756 351.598 375.756H349.471L349.672 364.736C349.934 350.37 349.128 333.181 346.335 293.557C344.657 269.767 341.334 250.878 336.916 240.019C335.673 236.965 335.503 235.858 335.777 232.598C336.355 225.723 336.715 222.674 336.924 222.882C337.036 222.995 337.901 226.163 338.845 229.923ZM317.142 228.27C317.518 229.096 317.742 229.855 317.64 229.956C317.538 230.059 316.372 230.315 315.049 230.527C312.664 230.908 312.644 230.897 312.644 229.167C312.644 227.454 313.201 227.007 315.55 226.836C316.05 226.799 316.766 227.445 317.142 228.27ZM381.664 237.949C382.286 242.951 382.116 243.3 379.051 243.315C376.11 243.329 376.109 243.025 379.007 233.334L380.202 229.338L380.654 231.394C380.902 232.525 381.357 235.475 381.664 237.949ZM166.053 234.746C167.702 237.975 168.133 240.735 166.926 240.332C166.543 240.204 166.032 239.152 165.791 237.993C165.55 236.833 164.817 234.834 164.161 233.549C163.343 231.946 163.207 231.284 163.726 231.442C164.142 231.568 165.189 233.055 166.053 234.746ZM320.161 236.448C321.051 239.102 321.78 241.429 321.78 241.618C321.78 241.808 320.115 242.361 318.081 242.848C313.724 243.89 314.046 244.302 313.473 236.95C313.094 232.071 313.107 231.999 314.437 231.736C318.076 231.014 318.439 231.312 320.161 236.448ZM164.03 237.946C164.257 239.347 164.173 239.951 163.785 239.711C162.808 239.107 161.342 235.556 161.352 233.819L161.362 232.192L162.523 234.005C163.161 235.001 163.84 236.775 164.03 237.946ZM154.807 234.24C155.623 235.558 154.036 236.006 150.128 235.56L146.212 235.112L149.067 234.421C152.771 233.523 154.333 233.474 154.807 234.24ZM122.806 236.547L122.747 238.903L116.495 238.687C113.056 238.568 105.168 238.527 98.9659 238.594C88.5798 238.707 87.6897 238.638 87.6897 237.722C87.6897 237.175 87.2894 236.157 86.8007 235.459L85.9123 234.19H104.389H122.865L122.806 236.547ZM357.892 235.309L361.175 235.984V239.323V242.662L356.892 242.85C353.486 243 352.609 242.872 352.61 242.229C352.613 240.375 353.898 234.212 354.239 234.415C354.443 234.536 356.086 234.938 357.892 235.309ZM133.08 236.22C135.592 236.646 139.832 237.403 142.501 237.901C145.17 238.398 149.409 239.166 151.922 239.605C154.434 240.045 158.673 240.815 161.342 241.318C164.012 241.82 168.479 242.612 171.271 243.078C177.126 244.055 177.329 244.143 177.329 245.686C177.329 246.638 177.056 246.786 175.759 246.53C174.896 246.36 172.647 245.966 170.763 245.655C168.879 245.343 165.025 244.693 162.199 244.21C154.083 242.822 132.89 239.308 128.692 238.654C124.735 238.037 123.584 237.084 124.892 235.508C125.341 234.967 126.074 234.816 127.043 235.066C127.852 235.275 130.568 235.794 133.08 236.22ZM156.204 238.132C156.204 238.597 151.688 238.322 151.113 237.822C150.982 237.708 152.074 237.615 153.539 237.615C155.005 237.615 156.204 237.848 156.204 238.132ZM118.806 240.494C123.517 240.826 129.426 241.351 131.938 241.66C134.451 241.969 138.561 242.478 141.074 242.791C153.31 244.314 164.913 247.941 167.696 251.112C170.749 254.588 172.177 261.766 171.063 268.034C169.059 279.313 164.209 291.979 156.081 307.165C151.609 315.519 149.771 318.215 141.623 328.377C135.61 335.876 135.587 335.899 130.255 339.447C128.074 340.898 124.119 344.074 121.467 346.506C118.815 348.936 116.283 351.138 115.84 351.398C113.912 352.532 110.504 351.066 103.273 345.995C99.2554 343.177 95.8897 340.649 95.7932 340.378C95.6967 340.107 97.2382 337.782 99.2189 335.213C102.919 330.413 103.435 329.685 111.751 317.531C116.013 311.303 121.608 302.557 123.381 299.351C123.699 298.776 125.279 296.783 126.892 294.921C129.131 292.337 131.044 290.894 134.975 288.821C139.529 286.421 143.643 283.002 143.643 281.619C143.643 280.563 141.839 279.767 138.142 279.192C131.248 278.118 121.927 279.897 105.104 285.494C89.3192 290.746 82.5083 291.559 54.289 291.559H32.0219L28.5979 289.956C26.7149 289.074 24.5716 287.79 23.8356 287.102C22.2347 285.605 19.5963 281.778 17.9765 278.603L16.8021 276.302L18.4173 274.602C22.8273 269.957 38.7854 260.181 53.6564 253.014C67.9302 246.135 78.7149 242.201 86.5478 241.017C94.295 239.846 106.749 239.644 118.806 240.494ZM338.954 250.574C343.173 267.201 344.811 282.884 347.765 334.942C348.644 350.42 348.862 367.621 348.244 372.759L347.884 375.756H345.68C344.468 375.756 343.476 375.673 343.476 375.572C343.476 374.751 340.32 357.165 338.917 350.169C337.59 343.554 337.031 338.753 336.625 330.476C335.754 312.734 334.719 250.844 335.2 245.293L335.644 240.184L336.487 242.182C336.952 243.281 338.062 247.057 338.954 250.574ZM306.32 247.475L307.977 252.375L305.886 253.214C304.736 253.676 303.702 253.965 303.588 253.858C303.474 253.75 303.567 251.064 303.795 247.89C304.022 244.716 304.31 242.222 304.435 242.347C304.561 242.472 305.409 244.78 306.32 247.475ZM184.082 246.132C184.481 248.813 181.291 250.06 179.394 247.964C178.593 247.078 178.543 246.645 179.1 245.422C179.469 244.611 180.185 243.847 180.691 243.724C182.04 243.397 183.867 244.694 184.082 246.132ZM323.41 246.891C324.016 248.854 324.395 250.651 324.254 250.887C324.112 251.123 321.989 251.315 319.536 251.315H315.076L314.688 248.394C314.475 246.788 314.377 245.41 314.472 245.333C315.009 244.892 319.978 243.407 321.045 243.369C322.109 243.33 322.484 243.888 323.41 246.891ZM361.175 248.746V253.598H359.652C358.814 253.598 356.494 253.314 354.495 252.966C351.562 252.455 350.911 252.152 351.124 251.396C351.268 250.881 351.556 249.124 351.763 247.493C352.179 244.212 352.095 244.253 358.749 243.99L361.175 243.894V248.746ZM378.018 244.422C378.646 244.668 379.867 244.668 380.73 244.422C382.06 244.043 382.344 244.164 382.593 245.219C383.267 248.067 383.856 260.19 383.348 260.734C382.389 261.76 374.769 261.425 373.086 260.282L371.58 259.259L373.245 253.717C374.16 250.67 375.169 247.213 375.487 246.035C376.095 243.779 376.203 243.711 378.018 244.422ZM325.889 256.024L326.671 259.592L323.759 260.501C319.226 261.917 316.075 262.306 316.041 261.454C316.024 261.058 315.82 259.011 315.585 256.905C315.093 252.482 314.852 252.666 321.302 252.534L325.107 252.457L325.889 256.024ZM309.677 257.492C310.367 259.633 310.932 261.53 310.932 261.706C310.932 262.016 304.253 266.157 303.754 266.157C303.619 266.157 303.509 263.744 303.509 260.795V255.433L305.65 254.545C306.828 254.057 307.934 253.644 308.107 253.628C308.281 253.612 308.987 255.35 309.677 257.492ZM355.751 254.448C360.24 255.036 361.175 255.368 361.176 256.372C361.178 257.185 360.498 257.285 356.038 257.126L350.898 256.942V255.232C350.898 253.878 351.107 253.579 351.897 253.798C352.447 253.949 354.181 254.242 355.751 254.448ZM359.177 258.685L360.89 258.735L360.693 266.87C360.584 271.344 360.456 275.035 360.407 275.071C360.157 275.261 349.727 274.309 349.493 274.075C349.206 273.788 350.234 260.124 350.637 258.871C350.801 258.36 351.835 258.22 354.166 258.392C355.98 258.526 358.235 258.658 359.177 258.685ZM379.874 262.498L384.013 262.176L383.963 267.163C383.936 269.906 383.743 273.427 383.535 274.988C383.174 277.697 383.054 277.856 380.873 278.512C376.341 279.874 366.885 278.956 366.885 277.154C366.885 276.348 369.141 268.027 370.66 263.232L371.496 260.593L373.615 261.708C375.367 262.628 376.452 262.765 379.874 262.498ZM131.082 262.218C121.399 262.985 116.574 263.631 99.3942 266.462C83.1557 269.138 70.3693 269.567 65.6527 267.597C64.3172 267.04 63.3055 266.903 62.972 267.237C62.0751 268.133 65.406 269.433 70.5126 270.18C75.5295 270.913 82.9353 270.457 94.2556 268.717C128.382 263.473 132.773 263.013 140.701 263.858C149.103 264.754 153.4 266.35 154.825 269.105C156.791 272.907 155.503 279.24 150.664 289.561C146.141 299.209 131.552 319.784 119.298 333.798C115.559 338.074 114.241 340.367 115.524 340.363C116.015 340.361 122.441 332.999 128.056 326.005C141.972 308.671 154.198 288.717 156.49 279.594C157.656 274.955 157.581 270.86 156.284 268.431C153.808 263.79 143.453 261.237 131.082 262.218ZM327.597 263.584C327.852 265.766 328.191 265.596 321.78 266.488C320.681 266.641 319.075 266.907 318.211 267.078C316.742 267.369 316.641 267.262 316.641 265.425C316.641 263.469 316.654 263.458 320.495 262.582C326.721 261.16 327.324 261.245 327.597 263.584ZM312.824 267.057C317.037 280.544 318.179 284.769 317.739 285.236C317.466 285.526 314.438 285.879 311.013 286.02L304.784 286.277L304.441 281.212C304.253 278.426 304.03 274.278 303.947 271.996L303.795 267.845L307.22 265.621C309.105 264.399 310.898 263.461 311.207 263.537C311.516 263.614 312.243 265.198 312.824 267.057ZM328.829 270.628C329.095 272.608 329.194 274.346 329.049 274.491C328.905 274.636 326.252 274.148 323.156 273.407C317.694 272.1 317.515 272.007 317.161 270.273C316.8 268.514 316.835 268.481 319.43 268.108C320.879 267.899 323.093 267.529 324.349 267.285C328.13 266.549 328.298 266.676 328.829 270.628ZM324.347 274.921L330.054 276.239L330.398 278.353C330.587 279.516 330.569 280.574 330.358 280.704C330.147 280.834 327.7 281.224 324.92 281.569C322.14 281.914 319.672 282.317 319.435 282.463C319.198 282.61 318.887 282.533 318.744 282.292C318.215 281.403 317.684 273.578 318.154 273.59C318.421 273.597 321.208 274.196 324.347 274.921ZM360.353 276.561C360.554 276.762 360.541 277.971 360.325 279.248L359.933 281.569H354.845H349.756V279.618C349.756 278.545 349.588 277.228 349.382 276.692C349.041 275.804 349.501 275.739 354.499 275.957C357.518 276.089 360.153 276.361 360.353 276.561ZM375.397 280.402C377.467 280.389 380.124 280.034 381.301 279.613C383.905 278.684 383.857 278.326 382.479 288.315C381.679 294.117 381.313 295.452 380.392 295.945C379.018 296.68 368.342 297.275 365.634 296.767C364.547 296.563 363.196 296.059 362.632 295.647C361.498 294.817 361.451 295.067 364.944 283.485L366.346 278.837L368.99 279.632C370.444 280.07 373.327 280.416 375.397 280.402ZM129.493 283.424C128.148 286.946 122.489 297.765 121.734 298.257C121.38 298.488 120.011 298.68 118.691 298.685C116.39 298.693 116.244 298.587 115.146 296.106C113.41 292.184 112.173 291.858 98.6987 291.773C91.0971 291.725 88.3377 291.558 90.2589 291.263C93.9741 290.692 100.437 288.92 107.78 286.459C117.78 283.109 125.054 281.229 128.61 281.076L130.419 280.998L129.493 283.424ZM331.193 283.424C332.179 287.649 332.325 287.515 326.163 288.045C323.078 288.309 320.464 288.435 320.352 288.324C320.242 288.213 320.067 287.106 319.966 285.865L319.781 283.608L324.063 282.958C330.624 281.963 330.856 281.978 331.193 283.424ZM360.033 285.773V288.835L357.384 289.198C352.272 289.898 350.899 289.703 350.892 288.276C350.888 287.57 350.726 286.029 350.532 284.851L350.178 282.711H355.106H360.033V285.773ZM318.925 286.995C318.925 287.154 320.086 291.696 321.506 297.088C322.925 302.479 323.889 307.066 323.647 307.281C321.864 308.864 310.948 310.2 308.872 309.089C307.959 308.601 307.556 307.29 306.786 302.304C306.261 298.906 305.662 294.276 305.456 292.015C304.996 286.983 303.955 287.461 316.784 286.814C317.962 286.755 318.925 286.837 318.925 286.995ZM332.318 291.13C332.531 292.308 332.845 293.849 333.014 294.555C333.317 295.819 333.235 295.84 327.863 295.84H322.404L321.81 293.699C320.722 289.784 320.824 289.637 324.777 289.412C326.74 289.301 329.152 289.161 330.138 289.1C331.787 288.998 331.961 289.161 332.318 291.13ZM359.707 294.555C359.412 298.051 357.5 307.254 356.997 307.594C356.469 307.953 352.603 306.978 352.577 306.481C352.558 306.122 352.232 302.544 351.853 298.529C351.079 290.328 350.775 291.002 355.466 290.52C360.55 289.997 360.126 289.594 359.707 294.555ZM333.405 298.551C334.205 302.769 334.996 310.209 334.721 310.925C334.469 311.583 330.193 312.579 327.26 312.664C326.85 312.676 322.999 299.084 322.938 297.41C322.928 297.174 325.213 296.981 328.015 296.981H333.108L333.405 298.551ZM366.209 298.193C368.824 298.733 370.653 298.74 374.37 298.22C381.465 297.229 381.137 297.134 380.455 299.978C379.306 304.763 374.936 320.401 374.592 320.958C374.039 321.852 364.466 321.651 362.184 320.698C359.483 319.569 356.524 316.135 356.853 314.509C359.135 303.229 361.058 296.814 362.044 297.193C362.481 297.36 364.355 297.81 366.209 298.193ZM118.759 303.68C115.056 309.995 108.134 320.225 100.925 330.035L93.2039 340.541L94.5964 341.737C95.3621 342.395 96.7506 343.488 97.6813 344.165L99.3742 345.396L96.7963 348.731C95.0447 350.997 93.1822 352.62 90.9886 353.792C84.2805 357.374 78.6247 362.891 77.2287 367.213C76.7017 368.844 76.2626 370.855 76.2535 371.683C76.2375 373.056 76.181 373.092 75.6066 372.104C75.1927 371.391 75.0134 366.922 75.083 359.053C75.2035 345.415 75.0654 344.931 71.0436 344.931H68.8483V328.167V311.402L71.2503 311.08C72.5714 310.903 76.3586 309.392 79.6672 307.723L85.6822 304.688L98.5332 304.402C111.407 304.116 112.815 303.893 114.499 301.865C114.964 301.304 116.176 300.977 117.788 300.977H120.342L118.759 303.68ZM81.9327 304.622C81.8014 304.742 79.5108 305.963 76.8416 307.334L71.9885 309.825H63.7097H55.4309L50.0069 307.143L44.5828 304.46L63.3768 304.431C73.7133 304.415 82.0635 304.501 81.9327 304.622ZM355.365 308.769C356.471 309.065 356.628 309.373 356.302 310.616C356.088 311.437 355.343 315.576 354.646 319.815C353.545 326.521 353.332 327.225 353.002 325.238C352.794 323.982 352.621 319.679 352.617 315.676C352.61 307.985 352.594 308.027 355.365 308.769ZM325.44 312.822C325.934 314.941 326.498 317.253 326.694 317.961C327.007 319.085 326.649 319.43 323.847 320.713C320.24 322.364 315.359 323.055 313.212 322.218C312.063 321.771 311.474 320.716 310.214 316.851C309.353 314.205 308.648 311.735 308.648 311.361C308.648 310.903 309.998 310.664 312.787 310.627C315.064 310.596 318.211 310.242 319.781 309.838C324.554 308.612 324.447 308.555 325.44 312.822ZM335.159 324.809C335.6 337.586 336.416 344.749 338.575 354.793C339.332 358.317 340.377 364.025 340.897 367.479C341.418 370.932 341.971 374.208 342.127 374.757C342.364 375.591 342.028 375.756 340.088 375.756C338.811 375.756 337.766 375.676 337.766 375.578C337.766 373.085 332.431 339.993 330.525 330.66C326.845 312.646 326.913 314.404 329.864 313.696C335.174 312.423 334.697 311.422 335.159 324.809ZM67.0024 330.518L67.1548 344.931H63.7091H60.2634L60.4165 331.105L60.5695 317.279L61.9968 316.543C62.7819 316.139 64.195 315.874 65.1371 315.956L66.8499 316.104L67.0024 330.518ZM362.671 322.165C363.954 322.615 366.845 322.903 369.54 322.851L374.193 322.761L373.142 326.568C372.564 328.662 371.814 331.448 371.476 332.759C370.908 334.959 370.631 335.22 367.873 336.156C364.057 337.452 356.089 337.595 354.64 336.393C353.536 335.478 353.551 335.178 355.275 323.672L356.194 317.54L358.325 319.465C359.496 320.523 361.452 321.738 362.671 322.165ZM328.576 326.798C329.764 332.375 329.775 332.673 328.806 333.381C327.271 334.503 320.792 336.369 318.43 336.369H316.344L314.474 330.232C313.446 326.857 312.615 323.967 312.627 323.81C312.64 323.654 314.511 323.511 316.787 323.494C319.755 323.473 321.649 323.124 323.493 322.258C324.906 321.595 326.348 321.031 326.697 321.004C327.052 320.977 327.881 323.534 328.576 326.798ZM331.838 345.25C331.525 346.064 323.576 347.934 321.466 347.689C319.953 347.514 319.727 347.143 318.301 342.505L316.766 337.51L318.844 337.503C320.878 337.496 327.226 335.756 329.11 334.69C329.939 334.222 330.186 334.817 331.068 339.388C331.623 342.268 331.97 344.905 331.838 345.25ZM370.131 338.224C369.964 338.93 369.384 341.857 368.842 344.727L367.856 349.947L365.8 350.287C362.909 350.765 355.313 350.706 354.516 350.199C354.096 349.932 353.797 347.568 353.703 343.786C353.564 338.149 353.62 337.807 354.653 337.986C358.487 338.649 363.493 338.596 366.028 337.865C370.1 336.691 370.485 336.724 370.131 338.224ZM73.4159 359.423V371.631L71.8458 371.838C70.9825 371.952 66.6147 371.962 62.1396 371.86L54.0035 371.674V359.444V347.214H63.7097H73.4159V359.423ZM333.104 351.35C333.441 353.625 333.537 355.662 333.316 355.876C332.656 356.516 323.377 357.604 322.897 357.099C322.39 356.565 320.638 350.811 320.638 349.679C320.638 349.2 321.415 348.907 322.779 348.872C323.957 348.842 326.205 348.487 327.775 348.084C332.582 346.849 332.421 346.75 333.104 351.35ZM106.083 352.447C109.627 353.754 112.635 354.912 112.768 355.019C112.901 355.126 112.233 355.918 111.285 356.779C108.234 359.551 107.441 361.341 107.117 366.188L106.817 370.704L104.818 369.377C102.687 367.961 99.9166 363.052 98.1946 357.639C97.6716 355.994 96.8951 354.36 96.4692 354.006C95.8229 353.47 95.856 353.092 96.6684 351.716C97.204 350.81 98.0912 350.069 98.6405 350.069C99.1898 350.069 102.539 351.139 106.083 352.447ZM367.456 351.471C367.456 352.004 365.746 359.389 365.586 359.549C365.291 359.844 354.854 358.78 354.492 358.418C354.344 358.271 354.09 356.653 353.925 354.823L353.627 351.496L360.542 351.471C364.344 351.457 367.456 351.457 367.456 351.471ZM334.04 358.774C334.201 359.48 334.721 362.755 335.196 366.052C335.672 369.348 336.216 372.88 336.406 373.901L336.752 375.756H332.406C330.016 375.756 328.06 375.685 328.06 375.598C328.06 375.512 327.036 371.98 325.784 367.75C324.533 363.519 323.505 359.773 323.5 359.425C323.496 359.076 325.099 358.533 327.061 358.22C332.989 357.271 333.711 357.328 334.04 358.774ZM364.932 360.865C365.331 360.897 365.018 363.478 364.044 368.192L362.539 375.471H358.574H354.609L354.451 367.76L354.294 360.05L359.304 360.433C362.061 360.643 364.593 360.837 364.932 360.865ZM56.3342 374.044C58.4044 374.044 58.5711 374.163 58.5711 375.645C58.5711 378.794 56.6219 380.755 42.1985 392.119C39.7417 394.055 34.9052 397.867 31.451 400.592C27.9967 403.316 24.2969 406.228 23.2298 407.062C9.62178 417.695 9.66688 417.631 8.96918 427.131L8.61291 431.983H5.47267H2.33244L2.45006 425.738C2.55626 420.065 2.72526 419.173 4.30051 415.974C6.32796 411.858 8.22295 410.037 20.612 400.302C25.6067 396.377 31.6302 391.622 33.998 389.734C36.3651 387.846 39.9724 385.033 42.0136 383.482C44.0547 381.93 45.8532 380.514 46.0102 380.335C46.1672 380.155 47.3325 379.201 48.5995 378.217C49.8664 377.232 51.2635 375.752 51.7037 374.929C52.1799 374.04 52.8279 373.557 53.3007 373.738C53.7386 373.906 55.1038 374.044 56.3342 374.044ZM90.2589 387.503C119.416 410.446 119.744 410.723 121.783 414.101C124.038 417.839 125.48 423.804 125.255 428.472L125.087 431.983H121.661H118.236L117.911 426.274C117.703 422.634 117.244 419.916 116.643 418.771C115.536 416.665 110.967 412.517 102.249 405.702C98.7947 403.001 94.4269 399.546 92.5427 398.024C90.6586 396.502 85.2289 392.175 80.4768 388.41C71.0167 380.913 68.8483 378.576 68.8483 375.876C68.8483 374.17 68.9453 374.1 71.5603 373.932C74.0913 373.769 74.4247 373.917 76.5561 376.138C77.8122 377.447 83.9785 382.561 90.2589 387.503ZM66.9978 403.013L66.8499 431.983H63.7097H60.5695L60.4216 403.013L60.2737 374.044H63.7097H67.1457L66.9978 403.013ZM114.785 375.173C118.053 376.755 120.224 380.698 118.435 381.803C118.053 382.039 117.29 381.54 116.616 380.615C115.151 378.605 113.431 376.881 111.321 375.309L109.671 374.079L111.061 374.062C111.825 374.051 113.501 374.552 114.785 375.173ZM376.02 379.17C376.02 380.462 375.711 380.947 374.735 381.183C374.029 381.355 359.99 381.424 343.538 381.337C316.739 381.195 313.565 381.083 313.044 380.258C312.724 379.751 312.624 378.916 312.821 378.402C313.147 377.554 316.037 377.468 344.6 377.468H376.02V379.17ZM112.812 381.179C112.812 381.336 112.683 381.464 112.526 381.464C112.369 381.464 112.241 381.336 112.241 381.179C112.241 381.022 112.369 380.893 112.526 380.893C112.683 380.893 112.812 381.022 112.812 381.179ZM117.379 386.621C117.379 388.028 115.572 386.942 114.536 384.912C112.971 381.846 113.064 381.754 115.381 384.071C116.48 385.17 117.379 386.317 117.379 386.621ZM373.983 384.176C372.428 391.228 369.106 399.638 364.231 408.864C357.783 421.067 350.672 429.093 343.137 432.671C339.199 434.54 338.031 434.823 333.396 435.025L328.13 435.255L326.298 432.655C321.296 425.562 318.082 413.555 315.803 393.452C315.323 389.213 314.929 385.039 314.929 384.176L314.928 382.606H344.629H374.329L373.983 384.176ZM96.2871 389.215C96.7398 389.764 96.8477 390.107 96.5263 389.977C95.3963 389.522 90.5889 385.74 90.5667 385.29C90.5381 384.703 95.2057 387.906 96.2871 389.215Z" fill="black"/>
</svg>
